<?xml version="1.0" encoding="UTF-8"?>
<svg enable-background="new 0 0 512.001 512.001" version="1.1" viewBox="0 0 512.001 512.001" xml:space="preserve" xmlns="http://www.w3.org/2000/svg">
<path d="m512 200.09h-512v-102.99c0-4.875 3.953-8.828 8.828-8.828h494.34c4.875 0 8.828 3.953 8.828 8.828l-1e-3 102.99z" fill="#464655"/>
<path d="m503.17 423.72h-494.34c-4.875 0-8.828-3.953-8.828-8.828v-102.99h512v102.99c0 4.876-3.953 8.828-8.828 8.828z" fill="#73AF00"/>
<rect y="200.09" width="512" height="111.81" fill="#F5F5F5"/>
<g fill="#FF4B55">
	<path d="m3.256 421.59l202.84-161.02c2.946-2.338 2.946-6.812 0-9.151l-202.84-161.01c-1.945 1.619-3.256 3.965-3.256 6.693v317.79c0 2.729 1.311 5.075 3.256 6.694z"/>
	<path d="m264.96 256c0-20.136 13.151-37.194 31.33-43.068 1.045-0.338 0.908-1.867-0.184-1.974-3.49-0.343-7.096-0.289-10.778 0.227-21.354 2.997-37.828 21.055-38.858 42.593-1.242 26.005 19.474 47.48 45.206 47.48 1.489 0 2.959-0.074 4.41-0.215 1.097-0.107 1.24-1.641 0.191-1.98-18.172-5.878-31.317-22.933-31.317-43.063z"/>
	<path d="m303.38 226.26l-5.946 17.83-18.795 0.146c-2.433 0.019-3.443 3.124-1.485 4.569l15.119 11.165-5.67 17.92c-0.734 2.321 1.908 4.239 3.887 2.824l15.29-10.93 15.29 10.93c1.98 1.415 4.621-0.504 3.887-2.824l-5.67-17.92 15.119-11.165c1.958-1.446 0.949-4.551-1.485-4.569l-18.795-0.146-5.946-17.83c-0.764-2.308-4.029-2.308-4.8 0z"/>
</g>
</svg>
