<?xml version="1.0" encoding="UTF-8"?>
<svg enable-background="new 0 0 512.001 512.001" version="1.1" viewBox="0 0 512.001 512.001" xml:space="preserve" xmlns="http://www.w3.org/2000/svg">
<path d="m512 200.09h-512v-102.99c0-4.875 3.953-8.828 8.828-8.828h494.34c4.875 0 8.828 3.953 8.828 8.828l-1e-3 102.99z" fill="#73AF00"/>
<path d="m503.17 423.72h-494.34c-4.875 0-8.828-3.953-8.828-8.828v-102.99h512v102.99c0 4.875-3.953 8.828-8.828 8.828z" fill="#FF4B55"/>
<g fill="#F5F5F5">
	<rect y="200.09" width="512" height="111.81"/>
	<path d="m1.389 194.18h0.077c0.767 0 1.389-0.621 1.389-1.389v-3.008c0-0.767 0.621-1.389 1.389-1.389h5.827c0.767 0 1.389 0.621 1.389 1.389v3.008c0 0.767 0.621 1.389 1.389 1.389h11.502c0.767 0 1.389-0.621 1.389-1.389v-5.938c0-0.767-0.621-1.389-1.389-1.389h-5.79c-0.767 0-1.389 0.621-1.389 1.389v0.152c0 0.767 0.621 1.389 1.389 1.389h2.935c0.767 0 1.389 0.621 1.389 1.389v0.151c0 0.767-0.621 1.389-1.389 1.389h-5.792c-0.767 0-1.389-0.621-1.389-1.389v-3.081c0-0.767-0.621-1.389-1.389-1.389h-11.537c-0.767 0-1.389 0.621-1.389 1.389v5.938c0 0.766 0.621 1.389 1.389 1.389zm5.748 0h0.079c0.767 0 1.389-0.621 1.389-1.389v-0.079c0-0.767-0.621-1.389-1.389-1.389h-0.079c-0.767 0-1.389 0.621-1.389 1.389v0.079c0 0.766 0.622 1.389 1.389 1.389zm-5.748-11.645h34.423c0.767 0 1.389-0.621 1.389-1.389v-0.152c0-0.767-0.621-1.389-1.389-1.389h-34.423c-0.767 0-1.389 0.621-1.389 1.389v0.152c0 0.768 0.621 1.389 1.389 1.389zm34.422 11.645h-5.79c-0.767 0-1.389-0.621-1.389-1.389v-5.938c0-0.767 0.621-1.389 1.389-1.389h8.648c0.767 0 1.389-0.621 1.389-1.389v-3.081c0-0.767 0.621-1.389 1.389-1.389h0.077c0.767 0 1.389 0.621 1.389 1.389v8.94c0 0.767 0.621 1.389 1.389 1.389h0.079c0.767 0 1.389-0.621 1.389-1.389v-8.94c0-0.767 0.621-1.389 1.389-1.389h0.077c0.767 0 1.389 0.621 1.389 1.389v8.94c0 0.767 0.621 1.389 1.389 1.389h0.115c0.767 0 1.389-0.621 1.389-1.389v-8.94c0-0.767 0.621-1.389 1.389-1.389h0.042c0.767 0 1.389 0.621 1.389 1.389v11.797c0 0.767-0.621 1.389-1.389 1.389h-11.502c-0.767 0-1.389-0.621-1.389-1.389v-3.008c0-0.767-0.621-1.389-1.389-1.389h-5.79c-0.767 0-1.389 0.621-1.389 1.389v0.151c0 0.767 0.621 1.389 1.389 1.389h2.933c0.767 0 1.389 0.621 1.389 1.389v0.079c0 0.766-0.623 1.389-1.39 1.389z"/>
	<path d="m58.618 194.18h0.115c0.767 0 1.389-0.621 1.389-1.389v-3.008c0-0.767 0.621-1.389 1.389-1.389h5.754c0.767 0 1.389 0.621 1.389 1.389v3.008c0 0.767 0.621 1.389 1.389 1.389h11.502c0.767 0 1.389-0.621 1.389-1.389v-5.938c0-0.767-0.621-1.389-1.389-1.389h-5.79c-0.767 0-1.389 0.621-1.389 1.389v0.152c0 0.767 0.621 1.389 1.389 1.389h2.935c0.767 0 1.389 0.621 1.389 1.389v0.151c0 0.767-0.621 1.389-1.389 1.389h-5.79c-0.767 0-1.389-0.621-1.389-1.389v-3.081c0-0.767-0.621-1.389-1.389-1.389h-11.504c-0.767 0-1.389 0.621-1.389 1.389v5.938c1e-3 0.766 0.623 1.389 1.389 1.389zm5.713 0h0.077c0.767 0 1.389-0.621 1.389-1.389v-0.079c0-0.767-0.621-1.389-1.389-1.389h-0.077c-0.767 0-1.389 0.621-1.389 1.389v0.079c1e-3 0.766 0.622 1.389 1.389 1.389zm-5.713-11.645h34.388c0.767 0 1.389-0.621 1.389-1.389v-0.152c0-0.767-0.621-1.389-1.389-1.389h-34.388c-0.767 0-1.389 0.621-1.389 1.389v0.152c1e-3 0.768 0.623 1.389 1.389 1.389zm34.388 11.645h-5.827c-0.767 0-1.389-0.621-1.389-1.389v-5.938c0-0.767 0.621-1.389 1.389-1.389h8.648c0.767 0 1.389-0.621 1.389-1.389v-3.081c0-0.767 0.621-1.389 1.389-1.389h0.115c0.767 0 1.389 0.621 1.389 1.389v8.94c0 0.767 0.621 1.389 1.389 1.389h0.115c0.767 0 1.389-0.621 1.389-1.389v-8.94c0-0.767 0.621-1.389 1.389-1.389h0.042c0.767 0 1.389 0.621 1.389 1.389v8.94c0 0.767 0.621 1.389 1.389 1.389h0.115c0.767 0 1.389-0.621 1.389-1.389v-8.94c0-0.767 0.621-1.389 1.389-1.389h0.077c0.767 0 1.389 0.621 1.389 1.389v11.797c0 0.767-0.621 1.389-1.389 1.389h-11.574c-0.767 0-1.389-0.621-1.389-1.389v-3.008c0-0.767-0.621-1.389-1.389-1.389h-5.754c-0.767 0-1.389 0.621-1.389 1.389v0.151c0 0.767 0.621 1.389 1.389 1.389h2.935c0.767 0 1.389 0.621 1.389 1.389v0.079c-5e-3 0.766-0.626 1.389-1.393 1.389z"/>
	<path d="m115.81 194.18h0.077c0.767 0 1.389-0.621 1.389-1.389v-3.008c0-0.767 0.621-1.389 1.389-1.389h5.792c0.767 0 1.389 0.621 1.389 1.389v3.008c0 0.767 0.621 1.389 1.389 1.389h11.538c0.767 0 1.389-0.621 1.389-1.389v-5.938c0-0.767-0.621-1.389-1.389-1.389h-5.79c-0.767 0-1.389 0.621-1.389 1.389v0.152c0 0.767 0.621 1.389 1.389 1.389h2.935c0.767 0 1.389 0.621 1.389 1.389v0.151c0 0.767-0.621 1.389-1.389 1.389h-5.827c-0.767 0-1.389-0.621-1.389-1.389v-3.081c0-0.767-0.621-1.389-1.389-1.389h-11.502c-0.767 0-1.389 0.621-1.389 1.389v5.938c-2e-3 0.766 0.621 1.389 1.388 1.389zm5.712 0h0.077c0.767 0 1.389-0.621 1.389-1.389v-0.079c0-0.767-0.621-1.389-1.389-1.389h-0.077c-0.767 0-1.389 0.621-1.389 1.389v0.079c0 0.766 0.622 1.389 1.389 1.389zm-5.712-11.645h34.424c0.767 0 1.389-0.621 1.389-1.389v-0.152c0-0.767-0.621-1.389-1.389-1.389h-34.424c-0.767 0-1.389 0.621-1.389 1.389v0.152c-1e-3 0.768 0.622 1.389 1.389 1.389zm34.424 11.645h-5.827c-0.767 0-1.389-0.621-1.389-1.389v-5.938c0-0.767 0.621-1.389 1.389-1.389h8.646c0.767 0 1.389-0.621 1.389-1.389v-3.081c0-0.767 0.621-1.389 1.389-1.389h0.079c0.767 0 1.389 0.621 1.389 1.389v8.94c0 0.767 0.621 1.389 1.389 1.389h0.115c0.767 0 1.389-0.621 1.389-1.389v-8.94c0-0.767 0.621-1.389 1.389-1.389h0.115c0.767 0 1.389 0.621 1.389 1.389v8.94c0 0.767 0.621 1.389 1.389 1.389h0.042c0.767 0 1.389-0.621 1.389-1.389v-8.94c0-0.767 0.621-1.389 1.389-1.389h0.077c0.767 0 1.389 0.621 1.389 1.389v11.797c0 0.767-0.621 1.389-1.389 1.389h-11.54c-0.767 0-1.389-0.621-1.389-1.389v-3.008c0-0.767-0.621-1.389-1.389-1.389h-5.79c-0.767 0-1.389 0.621-1.389 1.389v0.151c0 0.767 0.621 1.389 1.389 1.389h2.973c0.767 0 1.389 0.621 1.389 1.389v0.079c-2e-3 0.766-0.624 1.389-1.391 1.389z"/>
	<path d="m173.01 194.18h0.077c0.767 0 1.389-0.621 1.389-1.389v-3.008c0-0.767 0.621-1.389 1.389-1.389h5.79c0.767 0 1.389 0.621 1.389 1.389v3.008c0 0.767 0.621 1.389 1.389 1.389h11.54c0.767 0 1.389-0.621 1.389-1.389v-5.938c0-0.767-0.621-1.389-1.389-1.389h-5.827c-0.767 0-1.389 0.621-1.389 1.389v0.152c0 0.767 0.621 1.389 1.389 1.389h2.935c0.767 0 1.389 0.621 1.389 1.389v0.151c0 0.767-0.621 1.389-1.389 1.389h-5.79c-0.767 0-1.389-0.621-1.389-1.389v-3.081c0-0.767-0.621-1.389-1.389-1.389h-11.502c-0.767 0-1.389 0.621-1.389 1.389v5.938c0 0.766 0.622 1.389 1.388 1.389zm5.713 0h0.077c0.767 0 1.389-0.621 1.389-1.389v-0.079c0-0.767-0.621-1.389-1.389-1.389h-0.077c-0.767 0-1.389 0.621-1.389 1.389v0.079c1e-3 0.766 0.622 1.389 1.389 1.389zm-5.713-11.645h34.388c0.767 0 1.389-0.621 1.389-1.389v-0.152c0-0.767-0.621-1.389-1.389-1.389h-34.388c-0.767 0-1.389 0.621-1.389 1.389v0.152c1e-3 0.768 0.623 1.389 1.389 1.389zm34.388 11.645h-5.827c-0.767 0-1.389-0.621-1.389-1.389v-5.938c0-0.767 0.621-1.389 1.389-1.389h8.721c0.767 0 1.389-0.621 1.389-1.389v-3.081c0-0.767 0.621-1.389 1.389-1.389h0.077c0.767 0 1.389 0.621 1.389 1.389v8.94c0 0.767 0.621 1.389 1.389 1.389h0.042c0.767 0 1.389-0.621 1.389-1.389v-8.94c0-0.767 0.621-1.389 1.389-1.389h0.115c0.767 0 1.389 0.621 1.389 1.389v8.94c0 0.767 0.621 1.389 1.389 1.389h0.079c0.767 0 1.389-0.621 1.389-1.389v-8.94c0-0.767 0.621-1.389 1.389-1.389h0.077c0.767 0 1.389 0.621 1.389 1.389v11.797c0 0.767-0.621 1.389-1.389 1.389h-11.507c-0.767 0-1.389-0.621-1.389-1.389v-3.008c0-0.767-0.621-1.389-1.389-1.389h-5.827c-0.767 0-1.389 0.621-1.389 1.389v0.151c0 0.767 0.621 1.389 1.389 1.389h2.935c0.767 0 1.389 0.621 1.389 1.389v0.079c2e-3 0.766-0.619 1.389-1.386 1.389z"/>
	<path d="m230.2 194.18h0.079c0.767 0 1.389-0.621 1.389-1.389v-3.008c0-0.767 0.621-1.389 1.389-1.389h5.79c0.767 0 1.389 0.621 1.389 1.389v3.008c0 0.767 0.621 1.389 1.389 1.389h11.54c0.767 0 1.389-0.621 1.389-1.389v-5.938c0-0.767-0.621-1.389-1.389-1.389h-5.827c-0.767 0-1.389 0.621-1.389 1.389v0.152c0 0.767 0.621 1.389 1.389 1.389h2.97c0.767 0 1.389 0.621 1.389 1.389v0.151c0 0.767-0.621 1.389-1.389 1.389h-5.79c-0.767 0-1.389-0.621-1.389-1.389v-3.081c0-0.767-0.621-1.389-1.389-1.389h-11.54c-0.767 0-1.389 0.621-1.389 1.389v5.938c1e-3 0.766 0.622 1.389 1.389 1.389zm5.75 0h0.042c0.767 0 1.389-0.621 1.389-1.389v-0.079c0-0.767-0.621-1.389-1.389-1.389h-0.042c-0.767 0-1.389 0.621-1.389 1.389v0.079c0 0.766 0.622 1.389 1.389 1.389zm-5.75-11.645h34.425c0.767 0 1.389-0.621 1.389-1.389v-0.152c0-0.767-0.621-1.389-1.389-1.389h-34.425c-0.767 0-1.389 0.621-1.389 1.389v0.152c1e-3 0.768 0.622 1.389 1.389 1.389zm34.426 11.645h-5.827c-0.767 0-1.389-0.621-1.389-1.389v-5.938c0-0.767 0.621-1.389 1.389-1.389h8.684c0.767 0 1.389-0.621 1.389-1.389v-3.081c0-0.767 0.621-1.389 1.389-1.389h0.077c0.767 0 1.389 0.621 1.389 1.389v8.94c0 0.767 0.621 1.389 1.389 1.389h0.079c0.767 0 1.389-0.621 1.389-1.389v-8.94c0-0.767 0.621-1.389 1.389-1.389h0.077c0.767 0 1.389 0.621 1.389 1.389v8.94c0 0.767 0.621 1.389 1.389 1.389h0.077c0.767 0 1.389-0.621 1.389-1.389v-8.94c0-0.767 0.621-1.389 1.389-1.389h0.079c0.767 0 1.389 0.621 1.389 1.389v11.797c0 0.767-0.621 1.389-1.389 1.389h-11.502c-0.767 0-1.389-0.621-1.389-1.389v-3.008c0-0.767-0.621-1.389-1.389-1.389h-5.827c-0.767 0-1.389 0.621-1.389 1.389v0.151c0 0.767 0.621 1.389 1.389 1.389h2.97c0.767 0 1.389 0.621 1.389 1.389v0.079c0 0.766-0.621 1.389-1.388 1.389z"/>
	<path d="m287.4 194.18h0.079c0.767 0 1.389-0.621 1.389-1.389v-3.008c0-0.767 0.621-1.389 1.389-1.389h5.79c0.767 0 1.389 0.621 1.389 1.389v3.008c0 0.767 0.621 1.389 1.389 1.389h11.54c0.767 0 1.389-0.621 1.389-1.389v-5.938c0-0.767-0.621-1.389-1.389-1.389h-5.792c-0.767 0-1.389 0.621-1.389 1.389v0.152c0 0.767 0.621 1.389 1.389 1.389h2.899c0.767 0 1.389 0.621 1.389 1.389v0.151c0 0.767-0.621 1.389-1.389 1.389h-5.754c-0.767 0-1.389-0.621-1.389-1.389v-3.081c0-0.767-0.621-1.389-1.389-1.389h-11.54c-0.767 0-1.389 0.621-1.389 1.389v5.938c0 0.766 0.622 1.389 1.389 1.389zm5.749 0h0.042c0.767 0 1.389-0.621 1.389-1.389v-0.079c0-0.767-0.621-1.389-1.389-1.389h-0.042c-0.767 0-1.389 0.621-1.389 1.389v0.079c1e-3 0.766 0.622 1.389 1.389 1.389zm-5.749-11.645h34.424c0.767 0 1.389-0.621 1.389-1.389v-0.152c0-0.767-0.621-1.389-1.389-1.389h-34.424c-0.767 0-1.389 0.621-1.389 1.389v0.152c0 0.768 0.622 1.389 1.389 1.389zm34.425 11.645h-5.79c-0.767 0-1.389-0.621-1.389-1.389v-5.938c0-0.767 0.621-1.389 1.389-1.389h8.646c0.767 0 1.389-0.621 1.389-1.389v-3.081c0-0.767 0.621-1.389 1.389-1.389h0.079c0.767 0 1.389 0.621 1.389 1.389v8.94c0 0.767 0.621 1.389 1.389 1.389h0.077c0.767 0 1.389-0.621 1.389-1.389v-8.94c0-0.767 0.621-1.389 1.389-1.389h0.079c0.767 0 1.389 0.621 1.389 1.389v8.94c0 0.767 0.621 1.389 1.389 1.389h0.077c0.767 0 1.389-0.621 1.389-1.389v-8.94c0-0.767 0.621-1.389 1.389-1.389h0.079c0.767 0 1.389 0.621 1.389 1.389v11.797c0 0.767-0.621 1.389-1.389 1.389h-11.505c-0.767 0-1.389-0.621-1.389-1.389v-3.008c0-0.767-0.621-1.389-1.389-1.389h-5.826c-0.767 0-1.389 0.621-1.389 1.389v0.151c0 0.767 0.621 1.389 1.389 1.389h2.97c0.767 0 1.389 0.621 1.389 1.389v0.079c2e-3 0.766-0.621 1.389-1.387 1.389z"/>
	<path d="m344.59 194.18h0.079c0.767 0 1.389-0.621 1.389-1.389v-3.008c0-0.767 0.621-1.389 1.389-1.389h5.826c0.767 0 1.389 0.621 1.389 1.389v3.008c0 0.767 0.621 1.389 1.389 1.389h11.505c0.767 0 1.389-0.621 1.389-1.389v-5.938c0-0.767-0.621-1.389-1.389-1.389h-5.792c-0.767 0-1.389 0.621-1.389 1.389v0.152c0 0.767 0.621 1.389 1.389 1.389h2.973c0.767 0 1.389 0.621 1.389 1.389v0.151c0 0.767-0.621 1.389-1.389 1.389h-5.865c-0.767 0-1.389-0.621-1.389-1.389v-3.081c0-0.767-0.621-1.389-1.389-1.389h-11.502c-0.767 0-1.389 0.621-1.389 1.389v5.938c-1e-3 0.766 0.62 1.389 1.387 1.389zm5.713 0h0.115c0.767 0 1.389-0.621 1.389-1.389v-0.079c0-0.767-0.621-1.389-1.389-1.389h-0.115c-0.767 0-1.389 0.621-1.389 1.389v0.079c0 0.766 0.622 1.389 1.389 1.389zm-5.713-11.645h34.424c0.767 0 1.389-0.621 1.389-1.389v-0.152c0-0.767-0.621-1.389-1.389-1.389h-34.424c-0.767 0-1.389 0.621-1.389 1.389v0.152c1e-3 0.768 0.622 1.389 1.389 1.389zm34.426 11.645h-5.79c-0.767 0-1.389-0.621-1.389-1.389v-5.938c0-0.767 0.621-1.389 1.389-1.389h8.646c0.767 0 1.389-0.621 1.389-1.389v-3.081c0-0.767 0.621-1.389 1.389-1.389h0.079c0.767 0 1.389 0.621 1.389 1.389v8.94c0 0.767 0.621 1.389 1.389 1.389h0.077c0.767 0 1.389-0.621 1.389-1.389v-8.94c0-0.767 0.621-1.389 1.389-1.389h0.079c0.767 0 1.389 0.621 1.389 1.389v8.94c0 0.767 0.621 1.389 1.389 1.389h0.115c0.767 0 1.389-0.621 1.389-1.389v-8.94c0-0.767 0.621-1.389 1.389-1.389h0.04c0.767 0 1.389 0.621 1.389 1.389v11.797c0 0.767-0.621 1.389-1.389 1.389h-11.502c-0.767 0-1.389-0.621-1.389-1.389v-3.008c0-0.767-0.621-1.389-1.389-1.389h-5.754c-0.767 0-1.389 0.621-1.389 1.389v0.151c0 0.767 0.621 1.389 1.389 1.389h2.899c0.767 0 1.389 0.621 1.389 1.389v0.079c-2e-3 0.766-0.623 1.389-1.39 1.389z"/>
	<path d="m401.82 194.18h0.042c0.767 0 1.389-0.621 1.389-1.389v-3.008c0-0.767 0.621-1.389 1.389-1.389h5.792c0.767 0 1.389 0.621 1.389 1.389v3.008c0 0.767 0.621 1.389 1.389 1.389h11.538c0.767 0 1.389-0.621 1.389-1.389v-5.938c0-0.767-0.621-1.389-1.389-1.389h-5.752c-0.767 0-1.389 0.621-1.389 1.389v0.152c0 0.767 0.621 1.389 1.389 1.389h2.933c0.767 0 1.389 0.621 1.389 1.389v0.151c0 0.767-0.621 1.389-1.389 1.389h-5.826c-0.767 0-1.389-0.621-1.389-1.389v-3.081c0-0.767-0.621-1.389-1.389-1.389h-11.505c-0.767 0-1.389 0.621-1.389 1.389v5.938c-1e-3 0.766 0.622 1.389 1.389 1.389zm5.712 0h0.079c0.767 0 1.389-0.621 1.389-1.389v-0.079c0-0.767-0.621-1.389-1.389-1.389h-0.079c-0.767 0-1.389 0.621-1.389 1.389v0.079c0 0.766 0.622 1.389 1.389 1.389zm-5.712-11.645h34.462c0.767 0 1.389-0.621 1.389-1.389v-0.152c0-0.767-0.621-1.389-1.389-1.389h-34.462c-0.767 0-1.389 0.621-1.389 1.389v0.152c-1e-3 0.768 0.622 1.389 1.389 1.389zm34.461 11.645h-5.865c-0.767 0-1.389-0.621-1.389-1.389v-5.938c0-0.767 0.621-1.389 1.389-1.389h8.648c0.767 0 1.389-0.621 1.389-1.389v-3.081c0-0.767 0.621-1.389 1.389-1.389h0.115c0.767 0 1.389 0.621 1.389 1.389v8.94c0 0.767 0.621 1.389 1.389 1.389h0.077c0.767 0 1.389-0.621 1.389-1.389v-8.94c0-0.767 0.621-1.389 1.389-1.389h0.042c0.767 0 1.389 0.621 1.389 1.389v8.94c0 0.767 0.621 1.389 1.389 1.389h0.115c0.767 0 1.389-0.621 1.389-1.389v-8.94c0-0.767 0.621-1.389 1.389-1.389h0.079c0.767 0 1.389 0.621 1.389 1.389v11.797c0 0.767-0.621 1.389-1.389 1.389h-11.54c-0.767 0-1.389-0.621-1.389-1.389v-3.008c0-0.767-0.621-1.389-1.389-1.389h-5.79c-0.767 0-1.389 0.621-1.389 1.389v0.151c0 0.767 0.621 1.389 1.389 1.389h3.008c0.767 0 1.389 0.621 1.389 1.389v0.079c0 0.766-0.623 1.389-1.39 1.389z"/>
	<path d="m459.01 194.18h0.079c0.767 0 1.389-0.621 1.389-1.389v-3.008c0-0.767 0.621-1.389 1.389-1.389h5.79c0.767 0 1.389 0.621 1.389 1.389v3.008c0 0.767 0.621 1.389 1.389 1.389h11.54c0.767 0 1.389-0.621 1.389-1.389v-5.938c0-0.767-0.621-1.389-1.389-1.389h-5.754c-0.767 0-1.389 0.621-1.389 1.389v0.152c0 0.767 0.621 1.389 1.389 1.389h2.935c0.767 0 1.389 0.621 1.389 1.389v0.151c0 0.767-0.621 1.389-1.389 1.389h-5.865c-0.767 0-1.389-0.621-1.389-1.389v-3.081c0-0.767-0.621-1.389-1.389-1.389h-11.502c-0.767 0-1.389 0.621-1.389 1.389v5.938c0 0.766 0.622 1.389 1.388 1.389zm5.713 0h0.079c0.767 0 1.389-0.621 1.389-1.389v-0.079c0-0.767-0.621-1.389-1.389-1.389h-0.079c-0.767 0-1.389 0.621-1.389 1.389v0.079c1e-3 0.766 0.622 1.389 1.389 1.389zm-5.713-11.645h34.388c0.767 0 1.389-0.621 1.389-1.389v-0.152c0-0.767-0.621-1.389-1.389-1.389h-34.388c-0.767 0-1.389 0.621-1.389 1.389v0.152c1e-3 0.768 0.623 1.389 1.389 1.389zm34.388 11.645h-5.79c-0.767 0-1.389-0.621-1.389-1.389v-5.938c0-0.767 0.621-1.389 1.389-1.389h8.721c0.767 0 1.389-0.621 1.389-1.389v-3.081c0-0.767 0.621-1.389 1.389-1.389h4e-3c0.767 0 1.389 0.621 1.389 1.389v8.94c0 0.767 0.621 1.389 1.389 1.389h0.152c0.767 0 1.389-0.621 1.389-1.389v-8.94c0-0.767 0.621-1.389 1.389-1.389h4e-3c0.767 0 1.389 0.621 1.389 1.389v8.94c0 0.767 0.621 1.389 1.389 1.389h0.079c0.767 0 1.389-0.621 1.389-1.389v-8.94c0-0.767 0.621-1.389 1.389-1.389h0.151c0.767 0 1.389 0.621 1.389 1.389v11.797c0 0.767-0.621 1.389-1.389 1.389h-11.502c-0.767 0-1.389-0.621-1.389-1.389v-3.008c0-0.767-0.621-1.389-1.389-1.389h-5.864c-0.767 0-1.389 0.621-1.389 1.389v0.151c0 0.767 0.621 1.389 1.389 1.389h2.933c0.767 0 1.389 0.621 1.389 1.389v0.079c0 0.766-0.622 1.389-1.389 1.389z"/>
	<path d="m1.389 203.04h22.963c0.767 0 1.389-0.621 1.389-1.389v-3.081c0-0.767-0.621-1.389-1.389-1.389h-22.963c-0.767 0-1.389 0.621-1.389 1.389v3.081c0 0.768 0.621 1.389 1.389 1.389zm28.633 0h22.927c0.767 0 1.389-0.621 1.389-1.389v-3.081c0-0.767-0.621-1.389-1.389-1.389h-22.927c-0.767 0-1.389 0.621-1.389 1.389v3.081c0 0.768 0.622 1.389 1.389 1.389z"/>
	<path d="m58.618 203.04h22.927c0.767 0 1.389-0.621 1.389-1.389v-3.081c0-0.767-0.621-1.389-1.389-1.389h-22.927c-0.767 0-1.389 0.621-1.389 1.389v3.081c1e-3 0.768 0.623 1.389 1.389 1.389zm28.561 0h23c0.767 0 1.389-0.621 1.389-1.389v-3.081c0-0.767-0.621-1.389-1.389-1.389h-23c-0.767 0-1.389 0.621-1.389 1.389v3.081c0 0.768 0.622 1.389 1.389 1.389z"/>
	<path d="m115.81 203.04h22.963c0.767 0 1.389-0.621 1.389-1.389v-3.081c0-0.767-0.621-1.389-1.389-1.389h-22.963c-0.767 0-1.389 0.621-1.389 1.389v3.081c-1e-3 0.768 0.622 1.389 1.389 1.389zm28.596 0h22.963c0.767 0 1.389-0.621 1.389-1.389v-3.081c0-0.767-0.621-1.389-1.389-1.389h-22.963c-0.767 0-1.389 0.621-1.389 1.389v3.081c1e-3 0.768 0.623 1.389 1.389 1.389z"/>
	<path d="m173.01 203.04h22.963c0.767 0 1.389-0.621 1.389-1.389v-3.081c0-0.767-0.621-1.389-1.389-1.389h-22.963c-0.767 0-1.389 0.621-1.389 1.389v3.081c1e-3 0.768 0.623 1.389 1.389 1.389zm28.561 0h23c0.767 0 1.389-0.621 1.389-1.389v-3.081c0-0.767-0.621-1.389-1.389-1.389h-23c-0.767 0-1.389 0.621-1.389 1.389v3.081c0 0.768 0.621 1.389 1.389 1.389z"/>
	<path d="m230.2 203.04h22.965c0.767 0 1.389-0.621 1.389-1.389v-3.081c0-0.767-0.621-1.389-1.389-1.389h-22.965c-0.767 0-1.389 0.621-1.389 1.389v3.081c1e-3 0.768 0.622 1.389 1.389 1.389zm28.597 0h22.965c0.767 0 1.389-0.621 1.389-1.389v-3.081c0-0.767-0.621-1.389-1.389-1.389h-22.965c-0.767 0-1.389 0.621-1.389 1.389v3.081c1e-3 0.768 0.622 1.389 1.389 1.389z"/>
	<path d="m287.4 203.04h22.965c0.767 0 1.389-0.621 1.389-1.389v-3.081c0-0.767-0.621-1.389-1.389-1.389h-22.965c-0.767 0-1.389 0.621-1.389 1.389v3.081c0 0.768 0.622 1.389 1.389 1.389zm28.635 0h22.927c0.767 0 1.389-0.621 1.389-1.389v-3.081c0-0.767-0.621-1.389-1.389-1.389h-22.927c-0.767 0-1.389 0.621-1.389 1.389v3.081c0 0.768 0.622 1.389 1.389 1.389z"/>
	<path d="m344.59 203.04h22.965c0.767 0 1.389-0.621 1.389-1.389v-3.081c0-0.767-0.621-1.389-1.389-1.389h-22.965c-0.767 0-1.389 0.621-1.389 1.389v3.081c1e-3 0.768 0.622 1.389 1.389 1.389zm28.635 0h22.925c0.767 0 1.389-0.621 1.389-1.389v-3.081c0-0.767-0.621-1.389-1.389-1.389h-22.925c-0.767 0-1.389 0.621-1.389 1.389v3.081c1e-3 0.768 0.622 1.389 1.389 1.389z"/>
	<path d="m401.82 203.04h22.927c0.767 0 1.389-0.621 1.389-1.389v-3.081c0-0.767-0.621-1.389-1.389-1.389h-22.927c-0.767 0-1.389 0.621-1.389 1.389v3.081c-1e-3 0.768 0.622 1.389 1.389 1.389zm28.597 0h22.965c0.767 0 1.389-0.621 1.389-1.389v-3.081c0-0.767-0.621-1.389-1.389-1.389h-22.965c-0.767 0-1.389 0.621-1.389 1.389v3.081c0 0.768 0.622 1.389 1.389 1.389z"/>
	<path d="m459.01 203.04h22.965c0.767 0 1.389-0.621 1.389-1.389v-3.081c0-0.767-0.621-1.389-1.389-1.389h-22.965c-0.767 0-1.389 0.621-1.389 1.389v3.081c1e-3 0.768 0.623 1.389 1.389 1.389zm28.599 0h23c0.767 0 1.389-0.621 1.389-1.389v-3.081c0-0.767-0.621-1.389-1.389-1.389h-23c-0.767 0-1.389 0.621-1.389 1.389v3.081c-1e-3 0.768 0.621 1.389 1.389 1.389z"/>
	<path d="m510.61 317.83h-0.077c-0.767 0-1.389 0.621-1.389 1.389v3.008c0 0.767-0.621 1.389-1.389 1.389h-5.827c-0.767 0-1.389-0.621-1.389-1.389v-3.008c0-0.767-0.621-1.389-1.389-1.389h-11.502c-0.767 0-1.389 0.621-1.389 1.389v5.939c0 0.767 0.621 1.389 1.389 1.389h5.79c0.767 0 1.389-0.621 1.389-1.389v-0.152c0-0.767-0.621-1.389-1.389-1.389h-2.935c-0.767 0-1.389-0.621-1.389-1.389v-0.151c0-0.767 0.621-1.389 1.389-1.389h5.792c0.767 0 1.389 0.621 1.389 1.389v3.081c0 0.767 0.621 1.389 1.389 1.389h11.538c0.767 0 1.389-0.621 1.389-1.389v-5.939c-1e-3 -0.767-0.622-1.389-1.39-1.389zm-5.748 0h-0.079c-0.767 0-1.389 0.621-1.389 1.389v0.079c0 0.767 0.621 1.389 1.389 1.389h0.079c0.767 0 1.389-0.621 1.389-1.389v-0.079c0-0.767-0.622-1.389-1.389-1.389zm5.748 11.645h-34.423c-0.767 0-1.389 0.621-1.389 1.389v0.152c0 0.767 0.621 1.389 1.389 1.389h34.423c0.767 0 1.389-0.621 1.389-1.389v-0.152c0-0.768-0.621-1.389-1.389-1.389zm-34.422-11.645h5.79c0.767 0 1.389 0.621 1.389 1.389v5.939c0 0.767-0.621 1.389-1.389 1.389h-8.648c-0.767 0-1.389 0.621-1.389 1.389v3.081c0 0.767-0.621 1.389-1.389 1.389h-0.077c-0.767 0-1.389-0.621-1.389-1.389v-8.94c0-0.767-0.621-1.389-1.389-1.389h-0.079c-0.767 0-1.389 0.621-1.389 1.389v8.94c0 0.767-0.621 1.389-1.389 1.389h-0.077c-0.767 0-1.389-0.621-1.389-1.389v-8.94c0-0.767-0.621-1.389-1.389-1.389h-0.115c-0.767 0-1.389 0.621-1.389 1.389v8.94c0 0.767-0.621 1.389-1.389 1.389h-0.042c-0.767 0-1.389-0.621-1.389-1.389v-11.797c0-0.767 0.621-1.389 1.389-1.389h11.502c0.767 0 1.389 0.621 1.389 1.389v3.008c0 0.767 0.621 1.389 1.389 1.389h5.79c0.767 0 1.389-0.621 1.389-1.389v-0.151c0-0.767-0.621-1.389-1.389-1.389h-2.933c-0.767 0-1.389-0.621-1.389-1.389v-0.079c0-0.768 0.623-1.39 1.39-1.39z"/>
	<path d="m453.38 317.83h-0.115c-0.767 0-1.389 0.621-1.389 1.389v3.008c0 0.767-0.621 1.389-1.389 1.389h-5.754c-0.767 0-1.389-0.621-1.389-1.389v-3.008c0-0.767-0.621-1.389-1.389-1.389h-11.502c-0.767 0-1.389 0.621-1.389 1.389v5.939c0 0.767 0.621 1.389 1.389 1.389h5.79c0.767 0 1.389-0.621 1.389-1.389v-0.152c0-0.767-0.621-1.389-1.389-1.389h-2.935c-0.767 0-1.389-0.621-1.389-1.389v-0.151c0-0.767 0.621-1.389 1.389-1.389h5.792c0.767 0 1.389 0.621 1.389 1.389v3.081c0 0.767 0.621 1.389 1.389 1.389h11.502c0.767 0 1.389-0.621 1.389-1.389v-5.939c-1e-3 -0.767-0.623-1.389-1.389-1.389zm-5.713 0h-0.077c-0.767 0-1.389 0.621-1.389 1.389v0.079c0 0.767 0.621 1.389 1.389 1.389h0.077c0.767 0 1.389-0.621 1.389-1.389v-0.079c-1e-3 -0.767-0.622-1.389-1.389-1.389zm5.713 11.645h-34.388c-0.767 0-1.389 0.621-1.389 1.389v0.152c0 0.767 0.621 1.389 1.389 1.389h34.388c0.767 0 1.389-0.621 1.389-1.389v-0.152c-1e-3 -0.768-0.623-1.389-1.389-1.389zm-34.388-11.645h5.827c0.767 0 1.389 0.621 1.389 1.389v5.939c0 0.767-0.621 1.389-1.389 1.389h-8.648c-0.767 0-1.389 0.621-1.389 1.389v3.081c0 0.767-0.621 1.389-1.389 1.389h-0.115c-0.767 0-1.389-0.621-1.389-1.389v-8.94c0-0.767-0.621-1.389-1.389-1.389h-0.115c-0.767 0-1.389 0.621-1.389 1.389v8.94c0 0.767-0.621 1.389-1.389 1.389h-0.042c-0.767 0-1.389-0.621-1.389-1.389v-8.94c0-0.767-0.621-1.389-1.389-1.389h-0.115c-0.767 0-1.389 0.621-1.389 1.389v8.94c0 0.767-0.621 1.389-1.389 1.389h-0.077c-0.767 0-1.389-0.621-1.389-1.389v-11.797c0-0.767 0.621-1.389 1.389-1.389h11.575c0.767 0 1.389 0.621 1.389 1.389v3.008c0 0.767 0.621 1.389 1.389 1.389h5.754c0.767 0 1.389-0.621 1.389-1.389v-0.151c0-0.767-0.621-1.389-1.389-1.389h-2.935c-0.767 0-1.389-0.621-1.389-1.389v-0.079c3e-3 -0.768 0.625-1.39 1.392-1.39z"/>
	<path d="m396.19 317.83h-0.077c-0.767 0-1.389 0.621-1.389 1.389v3.008c0 0.767-0.621 1.389-1.389 1.389h-5.792c-0.767 0-1.389-0.621-1.389-1.389v-3.008c0-0.767-0.621-1.389-1.389-1.389h-11.538c-0.767 0-1.389 0.621-1.389 1.389v5.939c0 0.767 0.621 1.389 1.389 1.389h5.79c0.767 0 1.389-0.621 1.389-1.389v-0.152c0-0.767-0.621-1.389-1.389-1.389h-2.935c-0.767 0-1.389-0.621-1.389-1.389v-0.151c0-0.767 0.621-1.389 1.389-1.389h5.827c0.767 0 1.389 0.621 1.389 1.389v3.081c0 0.767 0.621 1.389 1.389 1.389h11.502c0.767 0 1.389-0.621 1.389-1.389v-5.939c2e-3 -0.767-0.621-1.389-1.388-1.389zm-5.712 0h-0.077c-0.767 0-1.389 0.621-1.389 1.389v0.079c0 0.767 0.621 1.389 1.389 1.389h0.077c0.767 0 1.389-0.621 1.389-1.389v-0.079c0-0.767-0.622-1.389-1.389-1.389zm5.712 11.645h-34.425c-0.767 0-1.389 0.621-1.389 1.389v0.152c0 0.767 0.621 1.389 1.389 1.389h34.425c0.767 0 1.389-0.621 1.389-1.389v-0.152c1e-3 -0.768-0.622-1.389-1.389-1.389zm-34.424-11.645h5.827c0.767 0 1.389 0.621 1.389 1.389v5.939c0 0.767-0.621 1.389-1.389 1.389h-8.646c-0.767 0-1.389 0.621-1.389 1.389v3.081c0 0.767-0.621 1.389-1.389 1.389h-0.079c-0.767 0-1.389-0.621-1.389-1.389v-8.94c0-0.767-0.621-1.389-1.389-1.389h-0.115c-0.767 0-1.389 0.621-1.389 1.389v8.94c0 0.767-0.621 1.389-1.389 1.389h-0.115c-0.767 0-1.389-0.621-1.389-1.389v-8.94c0-0.767-0.621-1.389-1.389-1.389h-0.042c-0.767 0-1.389 0.621-1.389 1.389v8.94c0 0.767-0.621 1.389-1.389 1.389h-0.077c-0.767 0-1.389-0.621-1.389-1.389v-11.797c0-0.767 0.621-1.389 1.389-1.389h11.54c0.767 0 1.389 0.621 1.389 1.389v3.008c0 0.767 0.621 1.389 1.389 1.389h5.79c0.767 0 1.389-0.621 1.389-1.389v-0.151c0-0.767-0.621-1.389-1.389-1.389h-2.973c-0.767 0-1.389-0.621-1.389-1.389v-0.079c2e-3 -0.768 0.624-1.39 1.391-1.39z"/>
	<path d="m338.99 317.83h-0.077c-0.767 0-1.389 0.621-1.389 1.389v3.008c0 0.767-0.621 1.389-1.389 1.389h-5.79c-0.767 0-1.389-0.621-1.389-1.389v-3.008c0-0.767-0.621-1.389-1.389-1.389h-11.54c-0.767 0-1.389 0.621-1.389 1.389v5.939c0 0.767 0.621 1.389 1.389 1.389h5.827c0.767 0 1.389-0.621 1.389-1.389v-0.152c0-0.767-0.621-1.389-1.389-1.389h-2.935c-0.767 0-1.389-0.621-1.389-1.389v-0.151c0-0.767 0.621-1.389 1.389-1.389h5.79c0.767 0 1.389 0.621 1.389 1.389v3.081c0 0.767 0.621 1.389 1.389 1.389h11.502c0.767 0 1.389-0.621 1.389-1.389v-5.939c0-0.767-0.622-1.389-1.388-1.389zm-5.713 0h-0.077c-0.767 0-1.389 0.621-1.389 1.389v0.079c0 0.767 0.621 1.389 1.389 1.389h0.077c0.767 0 1.389-0.621 1.389-1.389v-0.079c-1e-3 -0.767-0.622-1.389-1.389-1.389zm5.713 11.645h-34.388c-0.767 0-1.389 0.621-1.389 1.389v0.152c0 0.767 0.621 1.389 1.389 1.389h34.388c0.767 0 1.389-0.621 1.389-1.389v-0.152c-1e-3 -0.768-0.623-1.389-1.389-1.389zm-34.388-11.645h5.827c0.767 0 1.389 0.621 1.389 1.389v5.939c0 0.767-0.621 1.389-1.389 1.389h-8.721c-0.767 0-1.389 0.621-1.389 1.389v3.081c0 0.767-0.621 1.389-1.389 1.389h-0.077c-0.767 0-1.389-0.621-1.389-1.389v-8.94c0-0.767-0.621-1.389-1.389-1.389h-0.042c-0.767 0-1.389 0.621-1.389 1.389v8.94c0 0.767-0.621 1.389-1.389 1.389h-0.115c-0.767 0-1.389-0.621-1.389-1.389v-8.94c0-0.767-0.621-1.389-1.389-1.389h-0.079c-0.767 0-1.389 0.621-1.389 1.389v8.94c0 0.767-0.621 1.389-1.389 1.389h-0.077c-0.767 0-1.389-0.621-1.389-1.389v-11.797c0-0.767 0.621-1.389 1.389-1.389h11.502c0.767 0 1.389 0.621 1.389 1.389v3.008c0 0.767 0.621 1.389 1.389 1.389h5.827c0.767 0 1.389-0.621 1.389-1.389v-0.151c0-0.767-0.621-1.389-1.389-1.389h-2.935c-0.767 0-1.389-0.621-1.389-1.389v-0.079c3e-3 -0.768 0.624-1.39 1.391-1.39z"/>
	<path d="m281.8 317.83h-0.079c-0.767 0-1.389 0.621-1.389 1.389v3.008c0 0.767-0.621 1.389-1.389 1.389h-5.79c-0.767 0-1.389-0.621-1.389-1.389v-3.008c0-0.767-0.621-1.389-1.389-1.389h-11.54c-0.767 0-1.389 0.621-1.389 1.389v5.939c0 0.767 0.621 1.389 1.389 1.389h5.827c0.767 0 1.389-0.621 1.389-1.389v-0.152c0-0.767-0.621-1.389-1.389-1.389h-2.97c-0.767 0-1.389-0.621-1.389-1.389v-0.151c0-0.767 0.621-1.389 1.389-1.389h5.79c0.767 0 1.389 0.621 1.389 1.389v3.081c0 0.767 0.621 1.389 1.389 1.389h11.54c0.767 0 1.389-0.621 1.389-1.389v-5.939c-1e-3 -0.767-0.622-1.389-1.389-1.389zm-5.75 0h-0.042c-0.767 0-1.389 0.621-1.389 1.389v0.079c0 0.767 0.621 1.389 1.389 1.389h0.042c0.767 0 1.389-0.621 1.389-1.389v-0.079c0-0.767-0.622-1.389-1.389-1.389zm5.75 11.645h-34.425c-0.767 0-1.389 0.621-1.389 1.389v0.152c0 0.767 0.621 1.389 1.389 1.389h34.425c0.767 0 1.389-0.621 1.389-1.389v-0.152c-1e-3 -0.768-0.622-1.389-1.389-1.389zm-34.426-11.645h5.827c0.767 0 1.389 0.621 1.389 1.389v5.939c0 0.767-0.621 1.389-1.389 1.389h-8.684c-0.767 0-1.389 0.621-1.389 1.389v3.081c0 0.767-0.621 1.389-1.389 1.389h-0.077c-0.767 0-1.389-0.621-1.389-1.389v-8.94c0-0.767-0.621-1.389-1.389-1.389h-0.079c-0.767 0-1.389 0.621-1.389 1.389v8.94c0 0.767-0.621 1.389-1.389 1.389h-0.077c-0.767 0-1.389-0.621-1.389-1.389v-8.94c0-0.767-0.621-1.389-1.389-1.389h-0.077c-0.767 0-1.389 0.621-1.389 1.389v8.94c0 0.767-0.621 1.389-1.389 1.389h-0.079c-0.767 0-1.389-0.621-1.389-1.389v-11.797c0-0.767 0.621-1.389 1.389-1.389h11.502c0.767 0 1.389 0.621 1.389 1.389v3.008c0 0.767 0.621 1.389 1.389 1.389h5.827c0.767 0 1.389-0.621 1.389-1.389v-0.151c0-0.767-0.621-1.389-1.389-1.389h-2.97c-0.767 0-1.389-0.621-1.389-1.389v-0.079c0-0.768 0.621-1.39 1.388-1.39z"/>
	<path d="m224.6 317.83h-0.079c-0.767 0-1.389 0.621-1.389 1.389v3.008c0 0.767-0.621 1.389-1.389 1.389h-5.79c-0.767 0-1.389-0.621-1.389-1.389v-3.008c0-0.767-0.621-1.389-1.389-1.389h-11.54c-0.767 0-1.389 0.621-1.389 1.389v5.939c0 0.767 0.621 1.389 1.389 1.389h5.792c0.767 0 1.389-0.621 1.389-1.389v-0.152c0-0.767-0.621-1.389-1.389-1.389h-2.899c-0.767 0-1.389-0.621-1.389-1.389v-0.151c0-0.767 0.621-1.389 1.389-1.389h5.754c0.767 0 1.389 0.621 1.389 1.389v3.081c0 0.767 0.621 1.389 1.389 1.389h11.54c0.767 0 1.389-0.621 1.389-1.389v-5.939c0-0.767-0.622-1.389-1.389-1.389zm-5.749 0h-0.042c-0.767 0-1.389 0.621-1.389 1.389v0.079c0 0.767 0.621 1.389 1.389 1.389h0.042c0.767 0 1.389-0.621 1.389-1.389v-0.079c-1e-3 -0.767-0.622-1.389-1.389-1.389zm5.749 11.645h-34.425c-0.767 0-1.389 0.621-1.389 1.389v0.152c0 0.767 0.621 1.389 1.389 1.389h34.424c0.767 0 1.389-0.621 1.389-1.389v-0.152c1e-3 -0.768-0.621-1.389-1.388-1.389zm-34.425-11.645h5.79c0.767 0 1.389 0.621 1.389 1.389v5.939c0 0.767-0.621 1.389-1.389 1.389h-8.646c-0.767 0-1.389 0.621-1.389 1.389v3.081c0 0.767-0.621 1.389-1.389 1.389h-0.079c-0.767 0-1.389-0.621-1.389-1.389v-8.94c0-0.767-0.621-1.389-1.389-1.389h-0.077c-0.767 0-1.389 0.621-1.389 1.389v8.94c0 0.767-0.621 1.389-1.389 1.389h-0.079c-0.767 0-1.389-0.621-1.389-1.389v-8.94c0-0.767-0.621-1.389-1.389-1.389h-0.077c-0.767 0-1.389 0.621-1.389 1.389v8.94c0 0.767-0.621 1.389-1.389 1.389h-0.079c-0.767 0-1.389-0.621-1.389-1.389v-11.797c0-0.767 0.621-1.389 1.389-1.389h11.505c0.767 0 1.389 0.621 1.389 1.389v3.008c0 0.767 0.621 1.389 1.389 1.389h5.826c0.767 0 1.389-0.621 1.389-1.389v-0.151c0-0.767-0.621-1.389-1.389-1.389h-2.97c-0.767 0-1.389-0.621-1.389-1.389v-0.079c-2e-3 -0.768 0.621-1.39 1.387-1.39z"/>
	<path d="m167.41 317.83h-0.079c-0.767 0-1.389 0.621-1.389 1.389v3.008c0 0.767-0.621 1.389-1.389 1.389h-5.826c-0.767 0-1.389-0.621-1.389-1.389v-3.008c0-0.767-0.621-1.389-1.389-1.389h-11.505c-0.767 0-1.389 0.621-1.389 1.389v5.939c0 0.767 0.621 1.389 1.389 1.389h5.792c0.767 0 1.389-0.621 1.389-1.389v-0.152c0-0.767-0.621-1.389-1.389-1.389h-2.973c-0.767 0-1.389-0.621-1.389-1.389v-0.151c0-0.767 0.621-1.389 1.389-1.389h5.865c0.767 0 1.389 0.621 1.389 1.389v3.081c0 0.767 0.621 1.389 1.389 1.389h11.502c0.767 0 1.389-0.621 1.389-1.389v-5.939c1e-3 -0.767-0.62-1.389-1.387-1.389zm-5.713 0h-0.115c-0.767 0-1.389 0.621-1.389 1.389v0.079c0 0.767 0.621 1.389 1.389 1.389h0.115c0.767 0 1.389-0.621 1.389-1.389v-0.079c0-0.767-0.622-1.389-1.389-1.389zm5.713 11.645h-34.424c-0.767 0-1.389 0.621-1.389 1.389v0.152c0 0.767 0.621 1.389 1.389 1.389h34.424c0.767 0 1.389-0.621 1.389-1.389v-0.152c-1e-3 -0.768-0.622-1.389-1.389-1.389zm-34.426-11.645h5.79c0.767 0 1.389 0.621 1.389 1.389v5.939c0 0.767-0.621 1.389-1.389 1.389h-8.646c-0.767 0-1.389 0.621-1.389 1.389v3.081c0 0.767-0.621 1.389-1.389 1.389h-0.079c-0.767 0-1.389-0.621-1.389-1.389v-8.94c0-0.767-0.621-1.389-1.389-1.389h-0.077c-0.767 0-1.389 0.621-1.389 1.389v8.94c0 0.767-0.621 1.389-1.389 1.389h-0.079c-0.767 0-1.389-0.621-1.389-1.389v-8.94c0-0.767-0.621-1.389-1.389-1.389h-0.115c-0.767 0-1.389 0.621-1.389 1.389v8.94c0 0.767-0.621 1.389-1.389 1.389h-0.041c-0.767 0-1.389-0.621-1.389-1.389v-11.797c0-0.767 0.621-1.389 1.389-1.389h11.502c0.767 0 1.389 0.621 1.389 1.389v3.008c0 0.767 0.621 1.389 1.389 1.389h5.754c0.767 0 1.389-0.621 1.389-1.389v-0.151c0-0.767-0.621-1.389-1.389-1.389h-2.899c-0.767 0-1.389-0.621-1.389-1.389v-0.079c3e-3 -0.768 0.624-1.39 1.391-1.39z"/>
	<path d="m110.18 317.83h-0.042c-0.767 0-1.389 0.621-1.389 1.389v3.008c0 0.767-0.621 1.389-1.389 1.389h-5.792c-0.767 0-1.389-0.621-1.389-1.389v-3.008c0-0.767-0.621-1.389-1.389-1.389h-11.536c-0.767 0-1.389 0.621-1.389 1.389v5.939c0 0.767 0.621 1.389 1.389 1.389h5.752c0.767 0 1.389-0.621 1.389-1.389v-0.152c0-0.767-0.621-1.389-1.389-1.389h-2.933c-0.767 0-1.389-0.621-1.389-1.389v-0.151c0-0.767 0.621-1.389 1.389-1.389h5.827c0.767 0 1.389 0.621 1.389 1.389v3.081c0 0.767 0.621 1.389 1.389 1.389h11.505c0.767 0 1.389-0.621 1.389-1.389v-5.939c-2e-3 -0.767-0.625-1.389-1.392-1.389zm-5.712 0h-0.079c-0.767 0-1.389 0.621-1.389 1.389v0.079c0 0.767 0.621 1.389 1.389 1.389h0.079c0.767 0 1.389-0.621 1.389-1.389v-0.079c0-0.767-0.622-1.389-1.389-1.389zm5.712 11.645h-34.461c-0.767 0-1.389 0.621-1.389 1.389v0.152c0 0.767 0.621 1.389 1.389 1.389h34.462c0.767 0 1.389-0.621 1.389-1.389v-0.152c0-0.768-0.623-1.389-1.39-1.389zm-34.461-11.645h5.865c0.767 0 1.389 0.621 1.389 1.389v5.939c0 0.767-0.621 1.389-1.389 1.389h-8.648c-0.767 0-1.389 0.621-1.389 1.389v3.081c0 0.767-0.621 1.389-1.389 1.389h-0.115c-0.767 0-1.389-0.621-1.389-1.389v-8.94c0-0.767-0.621-1.389-1.389-1.389h-0.077c-0.767 0-1.389 0.621-1.389 1.389v8.94c0 0.767-0.621 1.389-1.389 1.389h-0.042c-0.767 0-1.389-0.621-1.389-1.389v-8.94c0-0.767-0.621-1.389-1.389-1.389h-0.115c-0.767 0-1.389 0.621-1.389 1.389v8.94c0 0.767-0.621 1.389-1.389 1.389h-0.079c-0.767 0-1.389-0.621-1.389-1.389v-11.797c0-0.767 0.621-1.389 1.389-1.389h11.54c0.767 0 1.389 0.621 1.389 1.389v3.008c0 0.767 0.621 1.389 1.389 1.389h5.79c0.767 0 1.389-0.621 1.389-1.389v-0.151c0-0.767-0.621-1.389-1.389-1.389h-3.005c-0.767 0-1.389-0.621-1.389-1.389v-0.079c-3e-3 -0.768 0.62-1.39 1.387-1.39z"/>
	<path d="m52.986 317.83h-0.079c-0.767 0-1.389 0.621-1.389 1.389v3.008c0 0.767-0.621 1.389-1.389 1.389h-5.79c-0.767 0-1.389-0.621-1.389-1.389v-3.008c0-0.767-0.621-1.389-1.389-1.389h-11.539c-0.767 0-1.389 0.621-1.389 1.389v5.939c0 0.767 0.621 1.389 1.389 1.389h5.754c0.767 0 1.389-0.621 1.389-1.389v-0.152c0-0.767-0.621-1.389-1.389-1.389h-2.935c-0.767 0-1.389-0.621-1.389-1.389v-0.151c0-0.767 0.621-1.389 1.389-1.389h5.865c0.767 0 1.389 0.621 1.389 1.389v3.081c0 0.767 0.621 1.389 1.389 1.389h11.502c0.767 0 1.389-0.621 1.389-1.389v-5.939c0-0.767-0.622-1.389-1.389-1.389zm-5.712 0h-0.079c-0.767 0-1.389 0.621-1.389 1.389v0.079c0 0.767 0.621 1.389 1.389 1.389h0.079c0.767 0 1.389-0.621 1.389-1.389v-0.079c-1e-3 -0.767-0.622-1.389-1.389-1.389zm5.712 11.645h-34.387c-0.767 0-1.389 0.621-1.389 1.389v0.152c0 0.767 0.621 1.389 1.389 1.389h34.388c0.767 0 1.389-0.621 1.389-1.389v-0.152c-1e-3 -0.768-0.623-1.389-1.39-1.389zm-34.387-11.645h5.79c0.767 0 1.389 0.621 1.389 1.389v5.939c0 0.767-0.621 1.389-1.389 1.389h-8.719c-0.767 0-1.389 0.621-1.389 1.389v3.081c0 0.767-0.621 1.389-1.389 1.389h-4e-3c-0.767 0-1.389-0.621-1.389-1.389v-8.94c0-0.767-0.621-1.389-1.389-1.389h-0.154c-0.767 0-1.389 0.621-1.389 1.389v8.94c0 0.767-0.621 1.389-1.389 1.389h-3e-3c-0.767 0-1.389-0.621-1.389-1.389v-8.94c0-0.767-0.621-1.389-1.389-1.389h-0.08c-0.767 0-1.389 0.621-1.389 1.389v8.94c0 0.767-0.621 1.389-1.389 1.389h-0.15c-0.767 0-1.389-0.621-1.389-1.389v-11.797c0-0.767 0.621-1.389 1.389-1.389h11.502c0.767 0 1.389 0.621 1.389 1.389v3.008c0 0.767 0.621 1.389 1.389 1.389h5.864c0.767 0 1.389-0.621 1.389-1.389v-0.151c0-0.767-0.621-1.389-1.389-1.389h-2.933c-0.767 0-1.389-0.621-1.389-1.389v-0.079c-1e-3 -0.768 0.621-1.39 1.388-1.39z"/>
	<path d="m510.61 308.97h-22.963c-0.767 0-1.389 0.621-1.389 1.389v3.081c0 0.767 0.621 1.389 1.389 1.389h22.963c0.767 0 1.389-0.621 1.389-1.389v-3.081c0-0.768-0.621-1.389-1.389-1.389zm-28.633 0h-22.927c-0.767 0-1.389 0.621-1.389 1.389v3.081c0 0.767 0.621 1.389 1.389 1.389h22.927c0.767 0 1.389-0.621 1.389-1.389v-3.081c0-0.768-0.622-1.389-1.389-1.389z"/>
	<path d="m453.38 308.97h-22.927c-0.767 0-1.389 0.621-1.389 1.389v3.081c0 0.767 0.621 1.389 1.389 1.389h22.927c0.767 0 1.389-0.621 1.389-1.389v-3.081c-1e-3 -0.768-0.623-1.389-1.389-1.389zm-28.561 0h-23c-0.767 0-1.389 0.621-1.389 1.389v3.081c0 0.767 0.621 1.389 1.389 1.389h23c0.767 0 1.389-0.621 1.389-1.389v-3.081c0-0.768-0.621-1.389-1.389-1.389z"/>
	<path d="m396.19 308.97h-22.963c-0.767 0-1.389 0.621-1.389 1.389v3.081c0 0.767 0.621 1.389 1.389 1.389h22.963c0.767 0 1.389-0.621 1.389-1.389v-3.081c1e-3 -0.768-0.622-1.389-1.389-1.389zm-28.596 0h-22.963c-0.767 0-1.389 0.621-1.389 1.389v3.081c0 0.767 0.621 1.389 1.389 1.389h22.963c0.767 0 1.389-0.621 1.389-1.389v-3.081c0-0.768-0.623-1.389-1.389-1.389z"/>
	<path d="m338.99 308.97h-22.963c-0.767 0-1.389 0.621-1.389 1.389v3.081c0 0.767 0.621 1.389 1.389 1.389h22.963c0.767 0 1.389-0.621 1.389-1.389v-3.081c-1e-3 -0.768-0.623-1.389-1.389-1.389zm-28.561 0h-23c-0.767 0-1.389 0.621-1.389 1.389v3.081c0 0.767 0.621 1.389 1.389 1.389h23c0.767 0 1.389-0.621 1.389-1.389v-3.081c0-0.768-0.621-1.389-1.389-1.389z"/>
	<path d="m281.8 308.97h-22.965c-0.767 0-1.389 0.621-1.389 1.389v3.081c0 0.767 0.621 1.389 1.389 1.389h22.965c0.767 0 1.389-0.621 1.389-1.389v-3.081c-1e-3 -0.768-0.622-1.389-1.389-1.389zm-28.597 0h-22.965c-0.767 0-1.389 0.621-1.389 1.389v3.081c0 0.767 0.621 1.389 1.389 1.389h22.965c0.767 0 1.389-0.621 1.389-1.389v-3.081c-1e-3 -0.768-0.622-1.389-1.389-1.389z"/>
	<path d="m224.6 308.97h-22.965c-0.767 0-1.389 0.621-1.389 1.389v3.081c0 0.767 0.621 1.389 1.389 1.389h22.965c0.767 0 1.389-0.621 1.389-1.389v-3.081c0-0.768-0.622-1.389-1.389-1.389zm-28.635 0h-22.927c-0.767 0-1.389 0.621-1.389 1.389v3.081c0 0.767 0.621 1.389 1.389 1.389h22.927c0.767 0 1.389-0.621 1.389-1.389v-3.081c0-0.768-0.622-1.389-1.389-1.389z"/>
	<path d="m167.41 308.97h-22.965c-0.767 0-1.389 0.621-1.389 1.389v3.081c0 0.767 0.621 1.389 1.389 1.389h22.965c0.767 0 1.389-0.621 1.389-1.389v-3.081c-1e-3 -0.768-0.622-1.389-1.389-1.389zm-28.635 0h-22.925c-0.767 0-1.389 0.621-1.389 1.389v3.081c0 0.767 0.621 1.389 1.389 1.389h22.925c0.767 0 1.389-0.621 1.389-1.389v-3.081c-1e-3 -0.768-0.622-1.389-1.389-1.389z"/>
	<path d="m110.18 308.97h-22.926c-0.767 0-1.389 0.621-1.389 1.389v3.081c0 0.767 0.621 1.389 1.389 1.389h22.927c0.767 0 1.389-0.621 1.389-1.389v-3.081c0-0.768-0.623-1.389-1.39-1.389zm-28.597 0h-22.965c-0.767 0-1.389 0.621-1.389 1.389v3.081c0 0.767 0.621 1.389 1.389 1.389h22.965c0.767 0 1.389-0.621 1.389-1.389v-3.081c0-0.768-0.622-1.389-1.389-1.389z"/>
	<path d="m52.986 308.97h-22.964c-0.767 0-1.389 0.621-1.389 1.389v3.081c0 0.767 0.621 1.389 1.389 1.389h22.965c0.767 0 1.389-0.621 1.389-1.389v-3.081c-1e-3 -0.768-0.623-1.389-1.39-1.389zm-28.598 0h-22.999c-0.768 0-1.389 0.621-1.389 1.389v3.081c0 0.767 0.621 1.389 1.389 1.389h23c0.767 0 1.389-0.621 1.389-1.389v-3.081c0-0.768-0.622-1.389-1.39-1.389z"/>
</g>
<g fill="#FF4B55">
	<path d="m248.7 214.27c2.618 0.698 5.414-0.071 7.334-2.026 2.898 2.934 7.647 3.004 10.651 0.141 1.956-1.886 2.759-4.75 2.06-7.334-2.548 4.121-7.925 5.448-12.046 2.863-0.21-0.141-0.489-0.28-0.663-0.42-3.875 2.863-9.357 2.095-12.291-1.745-0.106-0.211-0.314-0.49-0.455-0.698-1.049 4.053 1.395 8.241 5.41 9.219z"/>
	<path d="m264.97 295.86c9.386-5.153 17.219-13.272 21.514-23.966 7.314-18.33 2.708-39.02-11.283-52.44-0.481-0.461-1.212 0.156-0.863 0.724 13.799 22.503 8.363 52.074-12.99 68.278l1.021-65.367c0.014-0.887-0.382-1.732-1.071-2.291l-3.473-2.807c-1.064-0.86-2.584-0.855-3.642 0.01l-3.422 2.797c-0.683 0.558-1.073 1.398-1.059 2.28l0.992 65.413c-21.356-16.196-26.804-45.794-13.026-68.312 0.348-0.568-0.383-1.185-0.863-0.723-13.964 13.42-18.599 34.109-11.286 52.438 4.295 10.692 12.127 18.812 21.516 23.965-5.975 2.048-12.255 3.134-18.605 2.952-0.671-0.019-0.806 0.925-0.163 1.119 8.068 2.449 16.366 2.617 24.168 0.868l3.063 5.943c0.212 0.41 0.799 0.412 1.012 1e-3l3.084-5.941c7.802 1.746 16.103 1.575 24.177-0.874 0.642-0.194 0.508-1.138-0.163-1.119-6.358 0.185-12.653-0.901-18.638-2.948z"/>
	<path d="m303.17 235.09c-4.804-8.975-12.782-15.778-22.279-19.111-0.595-0.209-1.059 0.577-0.573 0.978 20.966 17.271 25.169 48.032 8.956 70.302-0.839 1.118-1.747 2.305-2.62 3.281 19.905-10.685 27.272-35.546 16.516-55.45z"/>
	<path d="m222.76 287.26c-16.214-22.27-12.044-53.03 8.918-70.301 0.487-0.402 0.022-1.186-0.573-0.978-9.485 3.334-17.408 10.135-22.243 19.11-10.824 19.904-3.386 44.765 16.552 55.449-0.942-0.976-1.85-2.162-2.654-3.28z"/>
</g>
</svg>
