<?xml version="1.0" encoding="UTF-8"?>
<svg enable-background="new 0 0 512.001 512.001" version="1.1" viewBox="0 0 512.001 512.001" xml:space="preserve" xmlns="http://www.w3.org/2000/svg">
<path d="m503.17 423.72h-494.34c-4.875 0-8.828-3.953-8.828-8.828v-317.79c0-4.875 3.953-8.828 8.828-8.828h494.34c4.875 0 8.828 3.953 8.828 8.828v317.79c-1e-3 4.876-3.954 8.828-8.829 8.828z" fill="#F5F5F5"/>
<g fill="#FF4B55">
	<path d="m512 114.08h-512v-16.977c0-4.875 3.953-8.828 8.828-8.828h494.34c4.875 0 8.828 3.953 8.828 8.828l-1e-3 16.977z"/>
	<rect y="191.49" width="512" height="25.804"/>
	<rect y="139.88" width="512" height="25.804"/>
	<path d="m512 268.9h-503.17c-4.875 0-8.828-3.953-8.828-8.828v-16.977h512v25.805z"/>
	<rect y="346.32" width="512" height="25.804"/>
	<path d="m503.17 423.72h-494.34c-4.875 0-8.828-3.953-8.828-8.828v-16.976h512v16.977c0 4.875-3.953 8.827-8.828 8.827z"/>
	<rect y="294.71" width="512" height="25.804"/>
</g>
<path d="m229.52 88.277h-220.69c-4.875 0-8.828 3.952-8.828 8.827v162.97c0 4.875 3.953 8.828 8.828 8.828h220.69c4.875 0 8.828-3.953 8.828-8.828v-162.97c-1e-3 -4.875-3.954-8.827-8.829-8.827z" fill="#41479B"/>
<g fill="#F5F5F5">
	<path d="m24.789 108.54l1.954 5.86 6.177 0.047c0.8 7e-3 1.131 1.027 0.488 1.502l-4.969 3.67 1.864 5.889c0.242 0.762-0.627 1.394-1.278 0.928l-5.025-3.591-5.025 3.592c-0.651 0.465-1.518-0.166-1.278-0.928l1.864-5.889-4.969-3.67c-0.643-0.476-0.312-1.495 0.488-1.502l6.177-0.047 1.954-5.86c0.252-0.76 1.324-0.76 1.578-1e-3z"/>
	<path d="m24.789 139.19l1.954 5.86 6.177 0.047c0.8 7e-3 1.131 1.027 0.488 1.502l-4.969 3.67 1.864 5.889c0.242 0.762-0.627 1.394-1.278 0.928l-5.025-3.591-5.025 3.592c-0.651 0.465-1.518-0.166-1.278-0.928l1.864-5.889-4.969-3.67c-0.643-0.476-0.312-1.495 0.488-1.502l6.177-0.047 1.954-5.86c0.252-0.759 1.324-0.759 1.578-1e-3z"/>
	<path d="m24.789 169.85l1.954 5.86 6.177 0.047c0.8 7e-3 1.131 1.027 0.488 1.502l-4.969 3.67 1.864 5.889c0.242 0.762-0.627 1.394-1.278 0.928l-5.025-3.591-5.025 3.592c-0.651 0.465-1.518-0.166-1.278-0.928l1.864-5.889-4.969-3.67c-0.643-0.476-0.312-1.495 0.488-1.502l6.177-0.047 1.954-5.86c0.252-0.759 1.324-0.759 1.578-1e-3z"/>
	<path d="m24.789 200.5l1.954 5.86 6.177 0.047c0.8 7e-3 1.131 1.027 0.488 1.502l-4.969 3.67 1.864 5.889c0.242 0.762-0.627 1.394-1.278 0.928l-5.025-3.591-5.025 3.592c-0.651 0.465-1.518-0.166-1.278-0.928l1.864-5.889-4.969-3.67c-0.643-0.476-0.312-1.495 0.488-1.502l6.177-0.047 1.954-5.86c0.252-0.76 1.324-0.76 1.578-1e-3z"/>
	<path d="m24.789 231.16l1.954 5.86 6.177 0.047c0.8 7e-3 1.131 1.027 0.488 1.502l-4.969 3.67 1.864 5.889c0.242 0.762-0.627 1.394-1.278 0.928l-5.025-3.591-5.025 3.592c-0.651 0.465-1.518-0.166-1.278-0.928l1.864-5.889-4.969-3.67c-0.643-0.476-0.312-1.495 0.488-1.502l6.177-0.047 1.954-5.86c0.252-0.761 1.324-0.761 1.578-1e-3z"/>
	<path d="m48.582 123.57l1.954 5.86 6.177 0.047c0.8 7e-3 1.131 1.027 0.488 1.502l-4.969 3.67 1.864 5.889c0.242 0.762-0.627 1.394-1.278 0.928l-5.025-3.592-5.025 3.592c-0.651 0.465-1.518-0.166-1.278-0.928l1.864-5.889-4.969-3.67c-0.643-0.476-0.312-1.495 0.488-1.502l6.177-0.047 1.954-5.86c0.251-0.758 1.325-0.758 1.578 0z"/>
	<path d="m48.582 154.22l1.954 5.86 6.177 0.047c0.8 7e-3 1.131 1.027 0.488 1.502l-4.969 3.67 1.864 5.889c0.242 0.762-0.627 1.394-1.278 0.928l-5.025-3.592-5.025 3.592c-0.651 0.465-1.518-0.165-1.278-0.928l1.864-5.889-4.969-3.67c-0.643-0.476-0.312-1.495 0.488-1.502l6.177-0.047 1.954-5.86c0.251-0.759 1.325-0.759 1.578 0z"/>
	<path d="m48.582 184.88l1.954 5.86 6.177 0.047c0.8 7e-3 1.131 1.027 0.488 1.502l-4.969 3.67 1.864 5.889c0.242 0.762-0.627 1.394-1.278 0.928l-5.025-3.592-5.025 3.592c-0.651 0.465-1.518-0.166-1.278-0.928l1.864-5.889-4.969-3.67c-0.643-0.476-0.312-1.495 0.488-1.502l6.177-0.047 1.954-5.86c0.251-0.759 1.325-0.759 1.578 0z"/>
	<path d="m48.582 215.53l1.954 5.86 6.177 0.047c0.8 7e-3 1.131 1.027 0.488 1.502l-4.969 3.67 1.864 5.889c0.242 0.762-0.627 1.394-1.278 0.928l-5.025-3.592-5.025 3.592c-0.651 0.465-1.518-0.166-1.278-0.928l1.864-5.889-4.969-3.67c-0.643-0.476-0.312-1.495 0.488-1.502l6.177-0.047 1.954-5.86c0.251-0.758 1.325-0.758 1.578 0z"/>
	<path d="m72.375 108.54l1.954 5.86 6.177 0.047c0.8 7e-3 1.131 1.027 0.488 1.502l-4.969 3.67 1.864 5.889c0.242 0.762-0.627 1.394-1.278 0.928l-5.025-3.592-5.025 3.592c-0.651 0.465-1.518-0.166-1.278-0.928l1.864-5.889-4.969-3.67c-0.643-0.476-0.312-1.495 0.488-1.502l6.177-0.047 1.954-5.86c0.252-0.759 1.325-0.759 1.578 0z"/>
	<path d="m72.375 139.19l1.954 5.86 6.177 0.047c0.8 7e-3 1.131 1.027 0.488 1.502l-4.969 3.67 1.864 5.889c0.242 0.762-0.627 1.394-1.278 0.928l-5.025-3.592-5.025 3.592c-0.651 0.465-1.518-0.166-1.278-0.928l1.864-5.889-4.969-3.67c-0.643-0.476-0.312-1.495 0.488-1.502l6.177-0.047 1.954-5.86c0.252-0.758 1.325-0.758 1.578 0z"/>
	<path d="m72.375 169.85l1.954 5.86 6.177 0.047c0.8 7e-3 1.131 1.027 0.488 1.502l-4.969 3.67 1.864 5.889c0.242 0.762-0.627 1.394-1.278 0.928l-5.025-3.592-5.025 3.592c-0.651 0.465-1.518-0.166-1.278-0.928l1.864-5.889-4.969-3.67c-0.643-0.476-0.312-1.495 0.488-1.502l6.177-0.047 1.954-5.86c0.252-0.758 1.325-0.758 1.578 0z"/>
	<path d="m72.375 200.5l1.954 5.86 6.177 0.047c0.8 7e-3 1.131 1.027 0.488 1.502l-4.969 3.67 1.864 5.889c0.242 0.762-0.627 1.394-1.278 0.928l-5.025-3.592-5.025 3.592c-0.651 0.465-1.518-0.166-1.278-0.928l1.864-5.889-4.969-3.67c-0.643-0.476-0.312-1.495 0.488-1.502l6.177-0.047 1.954-5.86c0.252-0.759 1.325-0.759 1.578 0z"/>
	<path d="m72.375 231.16l1.954 5.86 6.177 0.047c0.8 7e-3 1.131 1.027 0.488 1.502l-4.969 3.67 1.864 5.889c0.242 0.762-0.627 1.394-1.278 0.928l-5.025-3.592-5.025 3.592c-0.651 0.465-1.518-0.166-1.278-0.928l1.864-5.889-4.969-3.67c-0.643-0.476-0.312-1.495 0.488-1.502l6.177-0.047 1.954-5.86c0.252-0.76 1.325-0.76 1.578 0z"/>
	<path d="m96.169 123.57l1.954 5.86 6.177 0.047c0.8 7e-3 1.131 1.027 0.488 1.502l-4.969 3.67 1.864 5.889c0.242 0.762-0.627 1.394-1.278 0.928l-5.025-3.592-5.025 3.592c-0.651 0.465-1.518-0.166-1.278-0.928l1.864-5.889-4.969-3.67c-0.643-0.476-0.312-1.495 0.488-1.502l6.177-0.047 1.954-5.86c0.251-0.758 1.325-0.758 1.578 0z"/>
	<path d="m96.169 154.22l1.954 5.86 6.177 0.047c0.8 7e-3 1.131 1.027 0.488 1.502l-4.969 3.67 1.864 5.889c0.242 0.762-0.627 1.394-1.278 0.928l-5.025-3.592-5.025 3.592c-0.651 0.465-1.518-0.165-1.278-0.928l1.864-5.889-4.969-3.67c-0.643-0.476-0.312-1.495 0.488-1.502l6.177-0.047 1.954-5.86c0.251-0.759 1.325-0.759 1.578 0z"/>
	<path d="m96.169 184.88l1.954 5.86 6.177 0.047c0.8 7e-3 1.131 1.027 0.488 1.502l-4.969 3.67 1.864 5.889c0.242 0.762-0.627 1.394-1.278 0.928l-5.025-3.592-5.025 3.592c-0.651 0.465-1.518-0.166-1.278-0.928l1.864-5.889-4.969-3.67c-0.643-0.476-0.312-1.495 0.488-1.502l6.177-0.047 1.954-5.86c0.251-0.759 1.325-0.759 1.578 0z"/>
	<path d="m96.169 215.53l1.954 5.86 6.177 0.047c0.8 7e-3 1.131 1.027 0.488 1.502l-4.969 3.67 1.864 5.889c0.242 0.762-0.627 1.394-1.278 0.928l-5.025-3.592-5.025 3.592c-0.651 0.465-1.518-0.166-1.278-0.928l1.864-5.889-4.969-3.67c-0.643-0.476-0.312-1.495 0.488-1.502l6.177-0.047 1.954-5.86c0.251-0.758 1.325-0.758 1.578 0z"/>
	<path d="m119.96 108.54l1.954 5.86 6.177 0.047c0.8 7e-3 1.131 1.027 0.488 1.502l-4.969 3.67 1.864 5.889c0.242 0.762-0.627 1.394-1.278 0.928l-5.026-3.592-5.025 3.592c-0.651 0.465-1.518-0.166-1.278-0.928l1.864-5.889-4.969-3.67c-0.643-0.476-0.312-1.495 0.488-1.502l6.177-0.047 1.954-5.86c0.253-0.759 1.326-0.759 1.579 0z"/>
	<path d="m119.96 139.19l1.954 5.86 6.177 0.047c0.8 7e-3 1.131 1.027 0.488 1.502l-4.969 3.67 1.864 5.889c0.242 0.762-0.627 1.394-1.278 0.928l-5.026-3.592-5.025 3.592c-0.651 0.465-1.518-0.166-1.278-0.928l1.864-5.889-4.969-3.67c-0.643-0.476-0.312-1.495 0.488-1.502l6.177-0.047 1.954-5.86c0.253-0.758 1.326-0.758 1.579 0z"/>
	<path d="m119.96 169.85l1.954 5.86 6.177 0.047c0.8 7e-3 1.131 1.027 0.488 1.502l-4.969 3.67 1.864 5.889c0.242 0.762-0.627 1.394-1.278 0.928l-5.026-3.592-5.025 3.592c-0.651 0.465-1.518-0.166-1.278-0.928l1.864-5.889-4.969-3.67c-0.643-0.476-0.312-1.495 0.488-1.502l6.177-0.047 1.954-5.86c0.253-0.758 1.326-0.758 1.579 0z"/>
	<path d="m119.96 200.5l1.954 5.86 6.177 0.047c0.8 7e-3 1.131 1.027 0.488 1.502l-4.969 3.67 1.864 5.889c0.242 0.762-0.627 1.394-1.278 0.928l-5.026-3.592-5.025 3.592c-0.651 0.465-1.518-0.166-1.278-0.928l1.864-5.889-4.969-3.67c-0.643-0.476-0.312-1.495 0.488-1.502l6.177-0.047 1.954-5.86c0.253-0.759 1.326-0.759 1.579 0z"/>
	<path d="m119.96 231.16l1.954 5.86 6.177 0.047c0.8 7e-3 1.131 1.027 0.488 1.502l-4.969 3.67 1.864 5.889c0.242 0.762-0.627 1.394-1.278 0.928l-5.026-3.592-5.025 3.592c-0.651 0.465-1.518-0.166-1.278-0.928l1.864-5.889-4.969-3.67c-0.643-0.476-0.312-1.495 0.488-1.502l6.177-0.047 1.954-5.86c0.253-0.76 1.326-0.76 1.579 0z"/>
	<path d="m143.76 123.57l1.954 5.86 6.177 0.047c0.8 7e-3 1.131 1.027 0.488 1.502l-4.969 3.67 1.864 5.889c0.242 0.762-0.627 1.394-1.278 0.928l-5.025-3.592-5.025 3.592c-0.651 0.465-1.518-0.166-1.278-0.928l1.864-5.889-4.969-3.67c-0.643-0.476-0.312-1.495 0.488-1.502l6.177-0.047 1.954-5.86c0.253-0.758 1.325-0.758 1.578 0z"/>
	<path d="m143.76 154.22l1.954 5.86 6.177 0.047c0.8 7e-3 1.131 1.027 0.488 1.502l-4.969 3.67 1.864 5.889c0.242 0.762-0.627 1.394-1.278 0.928l-5.025-3.592-5.025 3.592c-0.651 0.465-1.518-0.165-1.278-0.928l1.864-5.889-4.969-3.67c-0.643-0.476-0.312-1.495 0.488-1.502l6.177-0.047 1.954-5.86c0.253-0.759 1.325-0.759 1.578 0z"/>
	<path d="m143.76 184.88l1.954 5.86 6.177 0.047c0.8 7e-3 1.131 1.027 0.488 1.502l-4.969 3.67 1.864 5.889c0.242 0.762-0.627 1.394-1.278 0.928l-5.025-3.592-5.025 3.592c-0.651 0.465-1.518-0.166-1.278-0.928l1.864-5.889-4.969-3.67c-0.643-0.476-0.312-1.495 0.488-1.502l6.177-0.047 1.954-5.86c0.253-0.759 1.325-0.759 1.578 0z"/>
	<path d="m143.76 215.53l1.954 5.86 6.177 0.047c0.8 7e-3 1.131 1.027 0.488 1.502l-4.969 3.67 1.864 5.889c0.242 0.762-0.627 1.394-1.278 0.928l-5.025-3.592-5.025 3.592c-0.651 0.465-1.518-0.166-1.278-0.928l1.864-5.889-4.969-3.67c-0.643-0.476-0.312-1.495 0.488-1.502l6.177-0.047 1.954-5.86c0.253-0.758 1.325-0.758 1.578 0z"/>
	<path d="m167.55 108.54l1.954 5.86 6.177 0.047c0.8 7e-3 1.131 1.027 0.488 1.502l-4.969 3.67 1.864 5.889c0.242 0.762-0.627 1.394-1.278 0.928l-5.025-3.592-5.025 3.592c-0.651 0.465-1.518-0.166-1.278-0.928l1.864-5.889-4.969-3.67c-0.643-0.476-0.312-1.495 0.488-1.502l6.177-0.047 1.954-5.86c0.251-0.759 1.325-0.759 1.578 0z"/>
	<path d="m167.55 139.19l1.954 5.86 6.177 0.047c0.8 7e-3 1.131 1.027 0.488 1.502l-4.969 3.67 1.864 5.889c0.242 0.762-0.627 1.394-1.278 0.928l-5.025-3.592-5.025 3.592c-0.651 0.465-1.518-0.166-1.278-0.928l1.864-5.889-4.969-3.67c-0.643-0.476-0.312-1.495 0.488-1.502l6.177-0.047 1.954-5.86c0.251-0.758 1.325-0.758 1.578 0z"/>
	<path d="m167.55 169.85l1.954 5.86 6.177 0.047c0.8 7e-3 1.131 1.027 0.488 1.502l-4.969 3.67 1.864 5.889c0.242 0.762-0.627 1.394-1.278 0.928l-5.025-3.592-5.025 3.592c-0.651 0.465-1.518-0.166-1.278-0.928l1.864-5.889-4.969-3.67c-0.643-0.476-0.312-1.495 0.488-1.502l6.177-0.047 1.954-5.86c0.251-0.758 1.325-0.758 1.578 0z"/>
	<path d="m167.55 200.5l1.954 5.86 6.177 0.047c0.8 7e-3 1.131 1.027 0.488 1.502l-4.969 3.67 1.864 5.889c0.242 0.762-0.627 1.394-1.278 0.928l-5.025-3.592-5.025 3.592c-0.651 0.465-1.518-0.166-1.278-0.928l1.864-5.889-4.969-3.67c-0.643-0.476-0.312-1.495 0.488-1.502l6.177-0.047 1.954-5.86c0.251-0.759 1.325-0.759 1.578 0z"/>
	<path d="m167.55 231.16l1.954 5.86 6.177 0.047c0.8 7e-3 1.131 1.027 0.488 1.502l-4.969 3.67 1.864 5.889c0.242 0.762-0.627 1.394-1.278 0.928l-5.025-3.592-5.025 3.592c-0.651 0.465-1.518-0.166-1.278-0.928l1.864-5.889-4.969-3.67c-0.643-0.476-0.312-1.495 0.488-1.502l6.177-0.047 1.954-5.86c0.251-0.76 1.325-0.76 1.578 0z"/>
	<path d="m191.34 123.57l1.954 5.86 6.177 0.047c0.8 7e-3 1.131 1.027 0.488 1.502l-4.969 3.67 1.864 5.889c0.242 0.762-0.627 1.394-1.278 0.928l-5.025-3.592-5.025 3.592c-0.651 0.465-1.518-0.166-1.278-0.928l1.864-5.889-4.969-3.67c-0.643-0.476-0.312-1.495 0.488-1.502l6.177-0.047 1.954-5.86c0.252-0.758 1.326-0.758 1.578 0z"/>
	<path d="m191.34 154.22l1.954 5.86 6.177 0.047c0.8 7e-3 1.131 1.027 0.488 1.502l-4.969 3.67 1.864 5.889c0.242 0.762-0.627 1.394-1.278 0.928l-5.025-3.592-5.025 3.592c-0.651 0.465-1.518-0.165-1.278-0.928l1.864-5.889-4.969-3.67c-0.643-0.476-0.312-1.495 0.488-1.502l6.177-0.047 1.954-5.86c0.252-0.759 1.326-0.759 1.578 0z"/>
	<path d="m191.34 184.88l1.954 5.86 6.177 0.047c0.8 7e-3 1.131 1.027 0.488 1.502l-4.969 3.67 1.864 5.889c0.242 0.762-0.627 1.394-1.278 0.928l-5.025-3.592-5.025 3.592c-0.651 0.465-1.518-0.166-1.278-0.928l1.864-5.889-4.969-3.67c-0.643-0.476-0.312-1.495 0.488-1.502l6.177-0.047 1.954-5.86c0.252-0.759 1.326-0.759 1.578 0z"/>
	<path d="m191.34 215.53l1.954 5.86 6.177 0.047c0.8 7e-3 1.131 1.027 0.488 1.502l-4.969 3.67 1.864 5.889c0.242 0.762-0.627 1.394-1.278 0.928l-5.025-3.592-5.025 3.592c-0.651 0.465-1.518-0.166-1.278-0.928l1.864-5.889-4.969-3.67c-0.643-0.476-0.312-1.495 0.488-1.502l6.177-0.047 1.954-5.86c0.252-0.758 1.326-0.758 1.578 0z"/>
	<path d="m215.14 108.54l1.954 5.86 6.177 0.047c0.8 7e-3 1.131 1.027 0.488 1.502l-4.969 3.67 1.864 5.889c0.242 0.762-0.627 1.394-1.278 0.928l-5.025-3.592-5.025 3.592c-0.651 0.465-1.518-0.166-1.278-0.928l1.864-5.889-4.969-3.67c-0.643-0.476-0.312-1.495 0.488-1.502l6.177-0.047 1.954-5.86c0.252-0.759 1.324-0.759 1.578 0z"/>
	<path d="m215.14 139.19l1.954 5.86 6.177 0.047c0.8 7e-3 1.131 1.027 0.488 1.502l-4.969 3.67 1.864 5.889c0.242 0.762-0.627 1.394-1.278 0.928l-5.025-3.592-5.025 3.592c-0.651 0.465-1.518-0.166-1.278-0.928l1.864-5.889-4.969-3.67c-0.643-0.476-0.312-1.495 0.488-1.502l6.177-0.047 1.954-5.86c0.252-0.758 1.324-0.758 1.578 0z"/>
	<path d="m215.14 169.85l1.954 5.86 6.177 0.047c0.8 7e-3 1.131 1.027 0.488 1.502l-4.969 3.67 1.864 5.889c0.242 0.762-0.627 1.394-1.278 0.928l-5.025-3.592-5.025 3.592c-0.651 0.465-1.518-0.166-1.278-0.928l1.864-5.889-4.969-3.67c-0.643-0.476-0.312-1.495 0.488-1.502l6.177-0.047 1.954-5.86c0.252-0.758 1.324-0.758 1.578 0z"/>
	<path d="m215.14 200.5l1.954 5.86 6.177 0.047c0.8 7e-3 1.131 1.027 0.488 1.502l-4.969 3.67 1.864 5.889c0.242 0.762-0.627 1.394-1.278 0.928l-5.025-3.592-5.025 3.592c-0.651 0.465-1.518-0.166-1.278-0.928l1.864-5.889-4.969-3.67c-0.643-0.476-0.312-1.495 0.488-1.502l6.177-0.047 1.954-5.86c0.252-0.759 1.324-0.759 1.578 0z"/>
	<path d="m215.14 231.16l1.954 5.86 6.177 0.047c0.8 7e-3 1.131 1.027 0.488 1.502l-4.969 3.67 1.864 5.889c0.242 0.762-0.627 1.394-1.278 0.928l-5.025-3.592-5.025 3.592c-0.651 0.465-1.518-0.166-1.278-0.928l1.864-5.889-4.969-3.67c-0.643-0.476-0.312-1.495 0.488-1.502l6.177-0.047 1.954-5.86c0.252-0.76 1.324-0.76 1.578 0z"/>
</g>
</svg>
