<?xml version="1.0" encoding="UTF-8"?>
<svg enable-background="new 0 0 511.883 511.883" version="1.1" viewBox="0 0 511.883 511.883" xml:space="preserve" xmlns="http://www.w3.org/2000/svg">
<path d="m10.654 383.91c-5.889 0-10.654 4.78-10.654 10.669v106.65c0 5.89 4.765 10.654 10.654 10.654h490.54c5.904 0 10.686-4.765 10.686-10.654v-106.65c0-5.889-4.781-10.669-10.686-10.669h-490.54z" fill="#AC92EB"/>
<path d="m498.2 326.16l-40.834-98.524c-2.249-5.437-8.498-8.03-13.934-5.765l-443.43 183.68v55.487l21.058 50.848h56.612l414.75-171.79c5.435-2.248 8.028-8.481 5.778-13.933z" fill="#5D9CEC"/>
<path d="m1e-3 473.55l38.335 38.335h51.488l328.68-328.66c4.154-4.171 4.154-10.919 0-15.09l-75.421-75.405c-4.155-4.171-10.903-4.171-15.074 0l-328 328.02v52.8z" fill="#4FC2E9"/>
<path d="m1e-3 490.65l51.238 21.229h55.487l183.68-443.44c2.265-5.436-0.312-11.685-5.765-13.934l-98.524-40.803c-5.436-2.265-11.685 0.328-13.934 5.765l-172.18 415.72v55.473z" fill="#48CFAD"/>
<path d="M0.001,501.228c0,5.89,4.765,10.654,10.654,10.654h106.632c5.905,0,10.685-4.765,10.685-10.654V10.67  c0-5.89-4.78-10.67-10.685-10.67H10.654C4.765,0.001,0,4.781,0,10.67v490.558H0.001z" fill="#A0D468"/>
<path d="m1e-3 383.93v117.3c0 5.89 4.765 10.654 10.654 10.654h106.63c5.905 0 10.685-4.765 10.685-10.654v-117.3h-127.97z" fill="#E6E9ED"/>
<path d="m63.986 437.24c-5.905 0-10.685 4.765-10.685 10.654s4.78 10.669 10.685 10.669c5.874 0 10.654-4.779 10.654-10.669s-4.781-10.654-10.654-10.654z"/>
<path d="m68.047 458.16c-5.437 2.249-11.669-0.328-13.935-5.78-2.25-5.437 0.344-11.669 5.78-13.935 5.436-2.249 11.685 0.344 13.934 5.78s-0.342 11.685-5.779 13.935z"/>
<path d="m71.609 454.69c-4.155 4.155-10.904 4.155-15.075 0-4.171-4.171-4.171-10.919 0-15.09 4.171-4.155 10.919-4.155 15.075 0 4.171 4.17 4.171 10.918 0 15.09z"/>
<path d="m73.827 451.99c-2.25 5.437-8.498 8.014-13.934 5.765-5.437-2.25-8.03-8.498-5.78-13.935 2.265-5.437 8.498-8.029 13.935-5.765 5.451 2.25 8.029 8.482 5.779 13.935z"/>
<path d="m53.301 447.9c0 5.89 4.78 10.669 10.685 10.669 5.874 0 10.654-4.779 10.654-10.669s-4.78-10.654-10.654-10.654c-5.905 0-10.685 4.765-10.685 10.654z"/>
<path d="m53.301 447.9c0 5.89 4.78 10.669 10.685 10.669 5.874 0 10.654-4.779 10.654-10.669s-4.78-10.654-10.654-10.654c-5.905 0-10.685 4.765-10.685 10.654z" fill="#434A54"/>
</svg>
