<?xml version="1.0" encoding="UTF-8"?>
<svg enable-background="new 0 0 512 512" version="1.1" viewBox="0 0 512 512" xml:space="preserve" xmlns="http://www.w3.org/2000/svg">
<polygon points="512 17.017 256 17.017 235.98 338.19 512 318.17" fill="#007CD6"/>
<polygon points="326.6 137.4 256 137.4 235.98 179.84 256 222.28 326.6 222.28" fill="#E0E3E6"/>
<polygon points="256 17.017 0 17.017 0 17.017 0 318.17 256 338.19" fill="#51B1F5"/>
<circle cx="359.8" cy="179.84" r="74.05" fill="#39C453"/>
<polygon points="78.15 137.4 78.15 222.28 256 222.28 256 194.84 245.99 179.84 256 164.84 256 137.4" fill="#fff"/>
<polygon points="235.98 479.98 326.6 479.98 315.82 405.58 235.98 385.56" fill="#898989"/>
<g fill="#CCCDD2">
	<polygon points="196.18 405.58 185.4 479.98 256 479.98 256 385.56"/>
	<polygon points="256 405.58 315.82 405.58 512 405.58 512 318.17 256 318.17 235.98 361.88"/>
</g>
<polygon points="256 318.17 0 318.17 0 405.58 196.18 405.58 256 405.58" fill="#F5F5F6"/>
<polygon points="278.27 346.88 256 346.88 245.99 361.88 256 376.88 278.27 376.88" fill="#898989"/>
<g fill="#CCCDD2">
	<rect x="233.73" y="346.87" width="22.272" height="30"/>
	<polygon points="382.12 464.98 256 464.98 235.98 479.98 256 494.98 382.12 494.98"/>
</g>
<rect x="129.88" y="464.98" width="126.12" height="30" fill="#F5F5F6"/>
<g fill="#FC707B">
	<rect x="113.15" y="164.84" width="32.2" height="30"/>
	<rect x="168.47" y="164.84" width="32.2" height="30"/>
	<rect x="223.79" y="164.84" width="32.2" height="30"/>
</g>
<polygon points="351.97 221.57 314.18 183.79 335.39 162.57 351.97 179.14 382.4 148.71 403.61 169.92" fill="#B8F5C1"/>
</svg>
