<?xml version="1.0" encoding="UTF-8"?>
<svg enable-background="new 0 0 503.467 503.467" version="1.1" viewBox="0 0 503.467 503.467" xml:space="preserve" xmlns="http://www.w3.org/2000/svg">
<g transform="translate(1 1)">
	<path d="m3.281 498.2v-221.87h51.2c9.387 0 17.067 7.68 17.067 17.067v187.73c0 9.387-7.68 17.067-17.067 17.067h-51.2z" fill="#AAB1BA"/>
	<path d="m344.62 370.2s8.533 8.533 8.533 25.6l0.853 2.56c2.56-0.853 5.12-1.707 7.68-3.413l98.133-47.787c11.947-6.827 28.16-2.56 34.987 9.387s2.56 28.16-9.387 34.987l-115.2 72.533s-25.6 17.067-85.333 17.067c-51.2 0-128-42.667-128-42.667s-17.067-8.533-51.2-8.533h-34.133v-119.47h102.4c25.6 0 68.267 51.2 93.867 51.2h51.2c17.066 0 25.6 8.533 25.6 8.533" fill="#FFD0A1"/>
	<path d="m336.08 3.267c70.827 0 128 57.173 128 128s-57.173 128-128 128-128-57.173-128-128 57.174-128 128-128" fill="#FFE079"/>
</g>
<path d="m55.481 503.47h-51.2c-2.56 0-4.267-1.707-4.267-4.267s1.707-4.267 4.267-4.267h51.2c6.827 0 12.8-5.973 12.8-12.8v-187.73c0-6.827-5.973-12.8-12.8-12.8h-51.2c-2.56 0-4.267-1.707-4.267-4.267s1.707-4.267 4.267-4.267h51.2c11.947 0 21.333 9.387 21.333 21.333v187.73c1e-3 11.948-9.386 21.335-21.333 21.335zm230.4-17.067c-52.053 0-127.15-41.813-129.71-43.52 0 0-17.067-7.68-49.493-7.68-2.56 0-4.267-1.707-4.267-4.267s1.707-4.267 4.267-4.267c34.987 0 52.053 8.533 52.907 9.387 0.853 0.853 76.8 41.813 126.29 41.813 57.173 0 82.773-16.213 82.773-16.213l115.2-71.68c5.12-2.56 8.533-7.68 10.24-12.8s0.853-11.093-2.56-16.213-7.68-8.533-12.8-10.24-11.093-0.853-16.213 1.707l-98.133 47.787c-17.92 9.387-34.987 9.387-69.973 9.387-34.133 0-83.627-8.533-86.187-8.533s-4.267-2.56-3.413-5.12c0-2.56 2.56-4.267 5.12-3.413 0.853 0 51.2 8.533 84.48 8.533s50.347 0 66.56-7.68l98.133-47.787c13.653-7.68 32.427-3.413 40.107 11.093 4.267 6.827 5.12 15.36 3.413 23.04s-6.827 14.507-13.653 17.92l-115.2 71.68c-1.707-1e-3 -27.307 17.066-87.894 17.066zm-260.27-25.6c-5.12 0-8.533-3.413-8.533-8.533s3.413-8.533 8.533-8.533 8.533 3.413 8.533 8.533-3.413 8.533-8.533 8.533zm320-85.333c-0.853 0-2.56 0-3.413-0.853 0 0-7.68-7.68-22.187-7.68h-51.2c-14.507 0-31.573-12.8-49.493-26.453-16.213-11.947-33.28-24.747-44.373-24.747h-68.267c-2.56 0-4.267-1.707-4.267-4.267s1.707-4.267 4.267-4.267h68.267c14.507 0 31.573 12.8 49.493 26.453 16.213 11.947 33.28 24.747 44.373 24.747h51.2c18.773 0 28.16 9.387 29.013 9.387 1.707 1.707 1.707 4.267 0 5.973-0.853 1.707-2.56 1.707-3.413 1.707zm-8.534-110.93c-72.533 0-132.27-59.733-132.27-132.27s59.734-132.27 132.27-132.27 132.27 59.733 132.27 132.27-59.733 132.27-132.27 132.27zm0-256c-68.267 0-123.73 55.467-123.73 123.73s55.467 123.73 123.73 123.73 123.73-55.467 123.73-123.73-55.466-123.73-123.73-123.73zm0 187.73c-2.56 0-4.267-1.707-4.267-4.267v-4.267c-14.507-1.707-25.6-14.507-25.6-29.867 0-2.56 1.707-4.267 4.267-4.267s4.267 1.707 4.267 4.267c0 11.947 9.387 21.333 21.333 21.333s21.333-9.387 21.333-21.333c0-11.947-9.387-21.333-21.333-21.333-16.213 0-29.867-13.653-29.867-29.867 0-15.36 11.093-27.307 25.6-29.867v-4.267c0-2.56 1.707-4.267 4.267-4.267s4.267 1.707 4.267 4.267v4.268c14.507 1.707 25.6 14.507 25.6 29.867 0 2.56-1.707 4.267-4.267 4.267s-4.267-1.707-4.267-4.267c0-11.947-9.387-21.333-21.333-21.333s-21.333 9.387-21.333 21.333 9.387 21.333 21.333 21.333c16.213 0 29.867 13.653 29.867 29.867 0 15.36-11.093 27.307-25.6 29.867v4.266c0 2.56-1.707 4.267-4.267 4.267z" fill="#51565F"/>
</svg>
