<?xml version="1.0" encoding="UTF-8"?>
<svg enable-background="new 0 0 291.32 291.32" version="1.1" viewBox="0 0 291.32 291.32" xml:space="preserve" xmlns="http://www.w3.org/2000/svg">
	<path d="M145.66,0c80.113,0,145.66,65.547,145.66,145.66s-65.547,145.66-145.66,145.66S0,225.772,0,145.66   S65.547,0,145.66,0z" fill="#DD4B39"/>
	<g fill="#fff">
		<polygon points="219.4 121.08 219.4 137.47 235.79 137.47 235.79 153.85 219.4 153.85 219.4 170.24 203.01 170.24 203.01 153.85 186.63 153.85 186.63 137.47 203.01 137.47 203.01 121.08"/>
		<path d="m71.919 186.63c-21.849-21.849-21.849-60.085 0.91-81.933 16.387-16.387 40.056-20.028 60.995-11.835l8.193 4.552 9.104 6.373-14.566 14.566-5.462-3.641c-12.745-8.193-30.953-6.373-42.787 5.462-13.656 13.656-14.566 38.236 0 52.802 13.656 14.566 38.236 14.566 50.981 0 3.641-3.641 7.283-9.104 8.193-14.566v-1.821h-32.773v-18.207h51.891l0.91 4.552v12.745c-0.91 11.835-5.462 23.67-13.656 31.863-21.848 20.937-60.084 20.937-81.933-0.912z"/>
	</g>
</svg>
