<?xml version="1.0" encoding="UTF-8"?>
<svg width="512px" height="512px" enable-background="new 0 0 299.995 299.995" version="1.1" viewBox="0 0 299.995 299.995" xml:space="preserve" xmlns="http://www.w3.org/2000/svg">
		<g fill="#476269">
			<path d="m165.45 108.21l-9.788 9.786c-1.945 1.943-4.658 2.638-7.158 2.101-1.541-0.241-3.009-0.936-4.173-2.103l-9.783-9.783c-6.549-6.546-15.149-9.822-23.749-9.822s-17.201 3.273-23.749 9.822c-12.82 12.823-12.698 33.374 0.283 47.805 13.232 14.708 49.605 45.027 62.666 55.788 13.061-10.758 49.442-41.085 62.677-55.788 12.978-14.428 13.1-34.982 0.28-47.805-13.097-13.093-34.406-13.096-47.506-1e-3z"/>
			<path d="m150 0c-82.839 0-150 67.158-150 150s67.156 150 150 150 150-67.163 150-150-67.161-150-150-150zm74.244 166.42c-16.98 18.866-67.049 59.619-69.174 61.343-1.489 1.211-3.286 1.826-5.07 1.74-0.054 3e-3 -0.112 3e-3 -0.169 3e-3 -1.725 0-3.46-0.571-4.902-1.743-2.124-1.725-52.188-42.478-69.163-61.341-18.612-20.689-18.49-50.445 0.283-69.218 19.161-19.164 50.344-19.164 69.506 0l4.448 4.448 4.451-4.451c19.161-19.161 50.341-19.159 69.508 0 18.769 18.777 18.891 48.533 0.282 69.219z"/>
		</g>
</svg>
