<?xml version="1.0" encoding="UTF-8"?>
<svg enable-background="new 0 0 512 512" version="1.1" viewBox="0 0 512 512" xml:space="preserve" xmlns="http://www.w3.org/2000/svg">
<path d="m257 0c-140.7 0-257 114.3-257 255 0 48.9 13.799 97.998 39.902 139.1l-38.701 97.2c-5.101 12.599 7.2 24.6 19.497 19.501l97.2-38.701c41.104 26.1 90.202 39.901 139.1 39.901 140.7 0 255-116.3 255-257s-114.3-255-255-255z" fill="#17ACE8"/>
<path d="m512 255c0 140.7-114.3 257-255 257v-512c140.7 0 255 114.3 255 255z" fill="#1689FC"/>
<g fill="#CAE8F9">
	<path d="m317 332h-15v-137c0-8.401-6.599-15-15-15h-90c-8.401 0-15 6.599-15 15v60c0 8.401 6.599 15 15 15h15v61.997h-15c-8.401 0-15 6.599-15 15v60c0 8.401 6.599 15 15 15h120c8.401 0 15-6.599 15-15v-60c0-8.401-6.599-15-15-15z"/>
	<path d="m257 60c-24.902 0-45 20.099-45 45s20.098 45 45 45 45-20.099 45-45-20.098-45-45-45z"/>
</g>
<g fill="#B7E0F6">
	<path d="m257 150v-90c24.902 0 45 20.099 45 45s-20.098 45-45 45z"/>
	<path d="m332 347v60c0 8.401-6.599 15-15 15h-60v-242h30c8.401 0 15 6.599 15 15v137h15c8.401 0 15 6.599 15 15z"/>
</g>
</svg>
