<?xml version="1.0" encoding="UTF-8"?>
<svg enable-background="new 0 0 291.319 291.319" version="1.1" viewBox="0 0 291.319 291.319" xml:space="preserve" xmlns="http://www.w3.org/2000/svg">
	<path d="M145.659,0c80.45,0,145.66,65.219,145.66,145.66s-65.21,145.659-145.66,145.659S0,226.1,0,145.66   S65.21,0,145.659,0z" fill="#0E76A8"/>
	<path d="m82.079 200.14h27.275v-90.91h-27.275v90.91zm106.26-94.059c-13.237 0-25.081 4.834-33.483 15.504v-12.654h-27.375v91.21h27.375v-49.324c0-10.424 9.55-20.593 21.512-20.593s14.912 10.169 14.912 20.338v49.57h27.275v-51.6c-1e-3 -35.842-16.97-42.451-30.216-42.451zm-92.749-5.936c7.538 0 13.656-6.118 13.656-13.656s-6.118-13.655-13.656-13.655-13.656 6.118-13.656 13.656 6.118 13.655 13.656 13.655z" fill="#fff"/>
</svg>
