<?xml version="1.0" encoding="UTF-8"?>
<svg enable-background="new 0 0 512 512" version="1.1" viewBox="0 0 512 512" xml:space="preserve" xmlns="http://www.w3.org/2000/svg">
<path d="M256,0v256L436.152,74.152C389.888,28.32,326.264,0,256,0z" fill="#5C9CED"/>
<path d="m436.15 74.152l-180.15 181.85h256c0-71.128-29.024-135.46-75.848-181.85z" fill="#25B6D2"/>
<path d="M256,512V256l180.152,181.848C389.888,483.68,326.264,512,256,512z" fill="#FB6E51"/>
<path d="m436.15 437.85l-180.15-181.85h256c0 71.128-29.024 135.46-75.848 181.85z" fill="#E04F5F"/>
<path d="M256,0v256L75.848,74.152C122.112,28.32,185.736,0,256,0z" fill="#25B6D2"/>
<path d="M75.848,74.152L256,256H0C0,184.872,29.024,120.544,75.848,74.152z" fill="#47CEAC"/>
<path d="M256,512V256L75.848,437.848C122.112,483.68,185.736,512,256,512z" fill="#FECD54"/>
<path d="M75.848,437.848L256,256H0C0,327.128,29.024,391.456,75.848,437.848z" fill="#32BEA6"/>
</svg>
