<?xml version="1.0" encoding="UTF-8"?>
<!DOCTYPE svg  PUBLIC '-//W3C//DTD SVG 1.1//EN'  'http://www.w3.org/Graphics/SVG/1.1/DTD/svg11.dtd'>
<svg width="512px" height="512px" enable-background="new 0 0 199.843 199.843" version="1.1" viewBox="0 0 199.843 199.843" xml:space="preserve" xmlns="http://www.w3.org/2000/svg">
<path d="m46.945 199.84c-5.273 0-10.951-2.061-17.087-7.262-10.908-9.246-17.739-24.802-19.235-43.803-2.302-29.237 8.195-62.27 26.813-84.678-0.559-0.73-1.112-1.523-1.654-2.387-3.798-6.053-3.454-11.479-3.178-15.839 0.188-2.967 0.35-5.528-0.777-7.682-2.802-5.353-5.584-6.68-5.611-6.692-0.958-0.441-1.427-1.557-1.049-2.541 0.376-0.984 1.435-1.514 2.442-1.202 0.927 0.287 22.092 6.94 30.153 17.199 28.745-21.543 63.353-28.147 89.313-17.075 0.347-0.757 0.738-1.535 1.179-2.335 3.424-6.203 7.994-8.678 11.666-10.665 2.519-1.363 4.693-2.541 6.036-4.618 3.315-5.132 3.293-8.175 3.293-8.204-0.021-1.057 0.782-1.966 1.835-2.052 1.059-0.089 1.991 0.644 2.143 1.689 0.137 0.95 3.292 23.402-2.661 35.028-1.009 1.971-2.045 3.65-3.069 5.082 5.063 5.254 9.514 11.8 13.246 19.485 12.776 26.313 11.607 55.782-3.379 85.223-11.256 22.113-26.061 36.208-26.686 36.798-0.425 0.423-11.413 11.117-24.932 7.835-8.006-1.944-11.09-7.596-13.81-12.581-3.085-5.654-5.75-10.537-14.924-10.996-6.706-0.307-13.55 6.678-20.81 14.104-8.196 8.382-17.764 18.169-29.257 18.169zm-6.826-132.71c-17.74 21.632-27.716 53.286-25.508 81.331 1.412 17.931 7.746 32.515 17.834 41.066 16.666 14.126 28.435 2.091 40.896-10.652 7.908-8.088 15.376-15.735 23.869-15.302 11.413 0.57 15.038 7.213 18.236 13.074 2.659 4.874 4.956 9.084 11.243 10.61 11.32 2.747 21.113-6.729 21.21-6.826 0.181-0.172 15.021-14.316 25.953-35.841 14.55-28.647 15.657-56.086 3.291-81.554-3.464-7.135-7.56-13.216-12.191-18.105-2.605 2.774-4.907 4.043-6.146 4.578l-20.668 44.419c-0.229 0.493-0.649 0.871-1.164 1.048-0.122 0.042-0.248 0.071-0.374 0.089-2.008 4.197-7.989 16.577-15.406 30.811 2.189 2.421 3.575 5.318 4.029 8.446 0.697 4.808-0.851 9.625-4.358 13.566-3.42 3.844-8.318 6.397-13.79 7.191-5.473 0.793-10.894-0.264-15.265-2.978-4.482-2.782-7.335-6.962-8.032-11.769-0.551-3.798 0.34-7.713 2.512-11.129-6.218-9.194-11.061-16.855-12.971-19.911-0.141 6e-3 -0.303-0.013-0.453-0.046-0.535-0.116-0.999-0.447-1.283-0.915l-6.693-11.006c-0.23 0.2-0.467 0.391-0.71 0.573-5.681 4.258-13.765 3.099-18.022-2.581s-3.099-13.765 2.581-18.022c0.909-0.681 1.909-1.238 2.964-1.657l-1.997-3.284c-1.81-0.321-5.633-1.426-9.587-5.224zm54.405 81.932c2.244 1.264 4.805 2.015 7.497 2.219-1.782-2.348-3.555-4.744-5.292-7.141-0.453 0.996-0.9 1.988-1.34 2.977-0.287 0.642-0.575 1.291-0.865 1.945zm-17.669-41.659c3.664 5.854 16.726 26.42 30.036 43.659 3.647-0.599 6.952-2.126 9.524-4.381-11.182-19.122-26.068-39.846-30.249-45.586l-9.311 6.308zm11.953 25.496c-1.039 2.196-1.408 4.53-1.07 6.861 0.373 2.572 1.589 4.92 3.505 6.835 0.165-0.371 0.329-0.741 0.493-1.108 0.751-1.686 1.522-3.385 2.306-5.091-1.804-2.538-3.558-5.056-5.234-7.497zm26.467 4.138c1.337 2.162 2.65 4.331 3.922 6.485 1.768-2.661 2.498-5.661 2.067-8.626-0.269-1.852-0.982-3.603-2.092-5.162-1.268 2.409-2.572 4.853-3.897 7.303zm-8.69-13.548c2.06 3.11 4.167 6.352 6.25 9.646 9.383-17.481 17.488-34.218 20.041-39.548l-8.449-4.326c-2.56 4.685-10.029 18.494-17.842 34.228zm-17.309-24.916c2.28 3.128 8.083 11.176 14.749 21.083 7.593-15.188 14.67-28.251 17.016-32.543-0.064-0.118-0.117-0.244-0.157-0.376-0.157-0.521-0.096-1.082 0.17-1.557l11.456-20.431h-0.091c-3.971 0-7.84-1.836-10.317-5.142-4.257-5.681-3.1-13.766 2.581-18.022 2.751-2.062 6.142-2.925 9.545-2.442 3.404 0.487 6.415 2.271 8.477 5.023 0.265 0.354 0.51 0.717 0.735 1.092l1.56-2.782c-0.464-1.741-1.06-5.582 0.574-10.89-24.72-10.585-57.923-4.119-85.599 16.707 3.893 6.683 4.001 11.704 3.735 14.056-0.012 0.112-0.025 0.218-0.038 0.317l25.415 33.809c0.329 0.438 0.464 0.991 0.374 1.531-0.034 0.199-0.096 0.39-0.185 0.567zm-35.688-27.533l20.321 33.42 10.717-7.261-23.501-31.264-7.537 5.105zm0.181 8.101c-0.945 0.297-1.826 0.751-2.632 1.354-3.915 2.935-4.713 8.507-1.778 12.423 2.933 3.914 8.505 4.714 12.423 1.778 0.333-0.25 0.649-0.524 0.946-0.822l-8.959-14.733zm71.79 6.185l9.829 5.033 19.328-41.538-6.75-3.457-3.033 5.409c-0.027 0.062-0.057 0.122-0.09 0.182l-6.747 12.033c-0.034 0.059-0.07 0.116-0.108 0.172l-12.429 22.166zm-91.224-50.822c0.345 0.563 0.691 1.173 1.035 1.83 1.646 3.145 1.442 6.372 1.225 9.79-0.265 4.179-0.539 8.5 2.574 13.459 4.36 6.946 9.309 8.455 11.083 8.78l9.479-6.423c0.014-0.119 0.027-0.254 0.038-0.403 0.129-1.98-0.165-6.491-4.148-12.627-0.065-0.1-0.12-0.204-0.166-0.311-0.072-0.108-0.145-0.218-0.219-0.327-4.031-5.95-13.846-10.849-20.901-13.768zm98.049 8.507c-1.905 0-3.751 0.612-5.303 1.775-3.916 2.935-4.714 8.507-1.779 12.423 2.239 2.986 6.128 4.234 9.661 3.165l6.018-10.732c-0.289-1.12-0.784-2.152-1.477-3.076-1.422-1.897-3.497-3.127-5.843-3.463-0.427-0.062-0.853-0.092-1.277-0.092zm16.538-1.759l8.637 4.423c0.823-0.408 2.259-1.271 3.938-2.933 1.673-1.666 3.619-4.156 5.507-7.843 3.168-6.187 3.4-16.326 3.05-23.663-0.23 0.388-0.476 0.785-0.74 1.193-1.898 2.938-4.615 4.408-7.491 5.966-3.545 1.919-7.21 3.903-10.068 9.081-3.973 7.201-3.27 12.109-2.833 13.776zm-104.26 140.22c-3.919 0-7.792-1.778-10.317-5.148-4.257-5.681-3.1-13.765 2.581-18.022 2.752-2.062 6.143-2.926 9.545-2.442 3.404 0.487 6.415 2.271 8.477 5.023s2.929 6.142 2.442 9.546c-0.487 3.403-2.271 6.414-5.023 8.477-2.31 1.73-5.019 2.565-7.705 2.566zm-0.034-21.745c-1.905 0-3.751 0.612-5.303 1.775-1.896 1.421-3.126 3.496-3.462 5.843s0.262 4.684 1.684 6.58c2.935 3.914 8.507 4.713 12.423 1.778 1.896-1.421 3.126-3.496 3.462-5.843s-0.262-4.683-1.684-6.58c-1.421-1.896-3.496-3.126-5.843-3.462-0.427-0.061-0.854-0.091-1.277-0.091zm113.24-20.088c-0.615 0-1.232-0.044-1.852-0.132-3.404-0.487-6.415-2.271-8.477-5.023s-2.93-6.142-2.442-9.546c0.487-3.403 2.271-6.414 5.023-8.477 5.681-4.257 13.766-3.098 18.022 2.581 4.257 5.681 3.099 13.766-2.582 18.022-2.25 1.687-4.929 2.575-7.692 2.575zm-0.038-21.746c-1.852 0-3.718 0.575-5.312 1.77-3.915 2.935-4.713 8.507-1.778 12.423 1.421 1.896 3.496 3.126 5.843 3.462 2.341 0.338 4.682-0.262 6.579-1.684 3.916-2.935 4.714-8.507 1.779-12.423-1.74-2.322-4.41-3.548-7.111-3.548zm-117.34 21.746c-0.615 0-1.232-0.044-1.852-0.132-3.404-0.487-6.415-2.271-8.477-5.023-2.063-2.751-2.93-6.142-2.442-9.546 0.487-3.403 2.271-6.414 5.023-8.477 2.751-2.063 6.142-2.926 9.545-2.442 3.404 0.487 6.415 2.271 8.477 5.023 2.063 2.751 2.93 6.142 2.442 9.546-0.488 3.403-2.271 6.414-5.023 8.477-2.251 1.686-4.93 2.574-7.693 2.574zm-0.046-21.752c-1.905 0-3.751 0.612-5.303 1.775-1.897 1.421-3.126 3.496-3.462 5.843s0.262 4.683 1.684 6.58c1.421 1.896 3.496 3.126 5.843 3.462 2.342 0.338 4.683-0.262 6.579-1.684 1.897-1.421 3.126-3.496 3.463-5.843 0.336-2.347-0.262-4.683-1.684-6.58-1.422-1.896-3.497-3.126-5.843-3.462-0.427-0.061-0.854-0.091-1.277-0.091zm120.28-19.79c-0.615 0-1.233-0.044-1.853-0.133-3.404-0.487-6.414-2.271-8.477-5.023-2.062-2.751-2.93-6.141-2.442-9.545 0.487-3.403 2.271-6.414 5.023-8.477 5.679-4.258 13.764-3.1 18.022 2.581 4.257 5.681 3.099 13.766-2.582 18.022-2.249 1.687-4.928 2.575-7.691 2.575zm-0.038-21.746c-1.852 0-3.719 0.576-5.312 1.77-1.896 1.421-3.126 3.496-3.462 5.843-0.336 2.346 0.262 4.683 1.683 6.579s3.497 3.126 5.843 3.463c2.348 0.332 4.683-0.262 6.579-1.684 3.916-2.935 4.714-8.507 1.779-12.423-1.74-2.322-4.409-3.548-7.11-3.548zm-71.595-6.629c-3.919 0-7.792-1.778-10.317-5.148-4.257-5.68-3.099-13.765 2.581-18.022 5.682-4.257 13.766-3.099 18.023 2.581 4.257 5.681 3.1 13.766-2.581 18.022-2.311 1.731-5.02 2.567-7.706 2.567zm-7.117-7.547c2.935 3.915 8.508 4.714 12.423 1.778 1.896-1.421 3.126-3.496 3.462-5.843s-0.262-4.683-1.684-6.58c-2.935-3.914-8.506-4.715-12.423-1.778-3.915 2.935-4.712 8.507-1.778 12.423z" fill="#0881a3"/>
</svg>
