<?xml version="1.0" encoding="UTF-8"?>
<svg width="512px" height="512px" enable-background="new 0 0 49.7 49.7" version="1.1" viewBox="0 0 49.7 49.7" xml:space="preserve" xmlns="http://www.w3.org/2000/svg">
<g fill="#0881a3">
	<path d="m27 13.85h9v8.964l13.7-9.964-13.7-9.964v8.964h-9c-7.168 0-13 5.832-13 13 0 6.065-4.935 11-11 11h-2c-0.553 0-1 0.447-1 1s0.447 1 1 1h2c7.168 0 13-5.832 13-13 0-6.065 4.935-11 11-11zm11-7.036l8.3 6.036-8.3 6.036v-12.072z"/>
	<path d="m1 13.85h2c2.713 0 5.318 0.994 7.336 2.799 0.191 0.171 0.43 0.255 0.667 0.255 0.274 0 0.548-0.112 0.745-0.333 0.368-0.412 0.333-1.044-0.078-1.412-2.385-2.134-5.464-3.309-8.67-3.309h-2c-0.553 0-1 0.447-1 1s0.447 1 1 1z"/>
	<path d="m36 35.85h-9c-2.685 0-5.27-0.976-7.278-2.748-0.411-0.365-1.044-0.327-1.411 0.089-0.365 0.414-0.326 1.046 0.089 1.411 2.374 2.095 5.429 3.248 8.601 3.248h9v8.964l13.7-9.964-13.701-9.964v8.964zm2-5.036l8.3 6.036-8.3 6.036v-12.072z"/>
</g>
</svg>
