<?xml version="1.0" encoding="UTF-8"?>
<svg enable-background="new 0 0 291.319 291.319" version="1.1" viewBox="0 0 291.319 291.319" xml:space="preserve" xmlns="http://www.w3.org/2000/svg">
	<path d="M145.659,0c80.45,0,145.66,65.219,145.66,145.66c0,80.45-65.21,145.659-145.66,145.659   S0,226.109,0,145.66C0,65.219,65.21,0,145.659,0z" fill="#26A6D1"/>
	<path d="m236.72 98.129c-6.363 2.749-13.21 4.597-20.392 5.435 7.338-4.27 12.964-11.016 15.613-19.072-6.864 3.96-14.457 6.828-22.55 8.366-6.473-6.691-15.695-10.87-25.909-10.87-19.591 0-35.486 15.413-35.486 34.439 0 2.704 0.31 5.335 0.919 7.857-29.496-1.438-55.66-15.158-73.157-35.996-3.059 5.089-4.807 10.997-4.807 17.315 0 11.944 6.263 22.504 15.786 28.668-5.826-0.182-11.289-1.721-16.086-4.315v0.437c0 16.696 12.235 30.616 28.476 33.784-2.977 0.783-6.109 1.211-9.35 1.211-2.285 0-4.506-0.209-6.673-0.619 4.515 13.692 17.625 23.651 33.165 23.925-12.153 9.249-27.457 14.748-44.089 14.748-2.868 0-5.69-0.164-8.476-0.482 15.722 9.777 34.367 15.485 54.422 15.485 65.292 0 101-52.51 101-98.029l-0.1-4.461c6.918-4.844 12.936-10.907 17.697-17.826z" fill="#fff"/>
</svg>
